<svg width="128" height="25" viewBox="0 0 128 25" fill="none" xmlns="http://www.w3.org/2000/svg">
<path d="M25.784 9.10401C26.264 9.42401 26.504 9.80001 26.504 10.232C26.504 10.488 26.408 10.776 26.216 11.096L25.784 11.744C25.48 12.224 25.12 12.464 24.704 12.464C24.416 12.464 24.112 12.352 23.792 12.128L15.368 6.34401L7.976 12.104C7.624 12.376 7.296 12.512 6.992 12.512C6.624 12.512 6.272 12.32 5.936 11.936L5.432 11.336C5.144 11 5 10.672 5 10.352C5 9.968 5.208 9.61601 5.624 9.29601L15.008 2.14401C15.408 1.85601 15.776 1.71201 16.112 1.71201C16.432 1.71201 16.736 1.83201 17.024 2.07201L17.576 2.552C18.024 2.95201 18.248 3.31201 18.248 3.63201C18.248 3.77601 18.192 3.94401 18.08 4.13601L25.784 9.10401ZM17.888 10.4C17.888 10.96 17.68 11.448 17.264 11.864C16.864 12.264 16.384 12.464 15.824 12.464C15.264 12.464 14.776 12.264 14.36 11.864C13.96 11.448 13.76 10.96 13.76 10.4C13.76 9.84 13.96 9.36001 14.36 8.96001C14.776 8.54401 15.264 8.33601 15.824 8.33601C16.384 8.33601 16.864 8.54401 17.264 8.96001C17.68 9.36001 17.888 9.84 17.888 10.4ZM22.136 13.472C22.6 13.472 22.952 13.6 23.192 13.856C23.448 14.096 23.576 14.448 23.576 14.912V15.704C23.576 16.344 23.392 16.944 23.024 17.504L19.424 22.76C19.088 23.24 18.688 23.48 18.224 23.48C17.984 23.48 17.728 23.408 17.456 23.264L16.688 22.88C16.144 22.576 15.872 22.208 15.872 21.776C15.872 21.504 15.984 21.208 16.208 20.888L19.208 16.688H9.032C8.568 16.688 8.208 16.568 7.952 16.328C7.712 16.072 7.592 15.712 7.592 15.248V14.912C7.592 14.448 7.712 14.096 7.952 13.856C8.208 13.6 8.568 13.472 9.032 13.472H22.136Z" fill="white"/>
<path d="M48.992 10.712C49.408 10.712 49.752 10.848 50.024 11.12C50.312 11.392 50.456 11.744 50.456 12.176V12.536C50.456 12.968 50.32 13.328 50.048 13.616C49.776 13.888 49.424 14.024 48.992 14.024H39.176L33.848 22.424C33.704 22.648 33.528 22.816 33.32 22.928C33.112 23.056 32.888 23.12 32.648 23.12C32.376 23.12 32.12 23.048 31.88 22.904L31.064 22.424C30.824 22.28 30.64 22.096 30.512 21.872C30.384 21.648 30.32 21.416 30.32 21.176C30.32 20.888 30.408 20.608 30.584 20.336L34.64 14.024H30.656C30.24 14.024 29.888 13.888 29.6 13.616C29.328 13.344 29.192 12.992 29.192 12.56V12.2C29.192 11.768 29.328 11.416 29.6 11.144C29.872 10.856 30.224 10.712 30.656 10.712H36.824L37.76 6.68001H31.808C31.392 6.68001 31.04 6.54401 30.752 6.27201C30.48 6.00001 30.344 5.64801 30.344 5.216V4.85601C30.344 4.42401 30.48 4.07201 30.752 3.80001C31.024 3.51201 31.376 3.36801 31.808 3.36801H47.744C48.16 3.36801 48.504 3.50401 48.776 3.776C49.064 4.04801 49.208 4.4 49.208 4.83201V5.19201C49.208 5.62401 49.072 5.98401 48.8 6.27201C48.528 6.54401 48.176 6.68001 47.744 6.68001H41.84L40.928 10.712H48.992ZM49.088 19.832C49.36 20.136 49.496 20.464 49.496 20.816C49.496 21.248 49.328 21.616 48.992 21.92L48.296 22.568C47.992 22.84 47.664 22.976 47.312 22.976C46.912 22.976 46.552 22.808 46.232 22.472L41.312 17.12C41.04 16.816 40.904 16.488 40.904 16.136C40.904 15.72 41.072 15.36 41.408 15.056L42.08 14.432C42.352 14.176 42.672 14.048 43.04 14.048C43.456 14.048 43.824 14.208 44.144 14.528L49.088 19.832Z" fill="white"/>
<path d="M56.384 6.58401C55.776 6.58401 55.248 6.36801 54.8 5.93601C54.368 5.48801 54.152 4.96001 54.152 4.35201C54.152 3.744 54.368 3.22401 54.8 2.79201C55.248 2.34401 55.776 2.12 56.384 2.12C56.992 2.12 57.512 2.34401 57.944 2.79201C58.392 3.22401 58.616 3.744 58.616 4.35201C58.616 4.96001 58.392 5.48801 57.944 5.93601C57.512 6.36801 56.992 6.58401 56.384 6.58401ZM63.512 5.52801C63.048 5.52801 62.688 5.40801 62.432 5.16801C62.192 4.91201 62.072 4.55201 62.072 4.08801V3.84801C62.072 3.38401 62.192 3.03201 62.432 2.79201C62.688 2.53601 63.048 2.40801 63.512 2.40801H71.168C71.632 2.40801 71.984 2.53601 72.224 2.79201C72.48 3.03201 72.608 3.38401 72.608 3.84801V4.08801C72.608 4.55201 72.48 4.91201 72.224 5.16801C71.984 5.40801 71.632 5.52801 71.168 5.52801H63.512ZM72.992 20.288C73.392 20.336 73.696 20.464 73.904 20.672C74.112 20.896 74.216 21.184 74.216 21.536C74.216 21.696 74.208 21.824 74.192 21.92L74.096 22.424C73.952 23.24 73.504 23.648 72.752 23.648C72.624 23.648 72.528 23.64 72.464 23.624L57.8 21.56V21.68C57.8 22.144 57.672 22.496 57.416 22.736C57.176 22.992 56.824 23.12 56.36 23.12H55.04C54.576 23.12 54.216 22.992 53.96 22.736C53.72 22.496 53.6 22.144 53.6 21.68V20.36C53.6 19.88 53.68 19.52 53.84 19.28C54.016 19.04 54.288 18.92 54.656 18.92H55.232V11.288H54.68C54.216 11.288 53.856 11.168 53.6 10.928C53.36 10.672 53.24 10.312 53.24 9.84801V9.51201C53.24 9.04801 53.36 8.69601 53.6 8.45601C53.856 8.20001 54.216 8.07201 54.68 8.07201H57.416C57.88 8.07201 58.232 8.20001 58.472 8.45601C58.728 8.69601 58.856 9.04801 58.856 9.51201V18.56L72.992 20.288ZM62.168 11.312C61.704 11.312 61.344 11.192 61.088 10.952C60.848 10.696 60.728 10.336 60.728 9.87201V9.63201C60.728 9.16801 60.848 8.81601 61.088 8.57601C61.344 8.32001 61.704 8.19201 62.168 8.19201H72.704C73.168 8.19201 73.52 8.32001 73.76 8.57601C74.016 8.81601 74.144 9.16801 74.144 9.63201V9.87201C74.144 10.336 74.016 10.696 73.76 10.952C73.52 11.192 73.168 11.312 72.704 11.312H66.92L64.808 15.296L68.936 14.816L68.624 14.192C68.48 13.92 68.408 13.664 68.408 13.424C68.408 12.928 68.68 12.536 69.224 12.248L69.344 12.2C69.632 12.056 69.896 11.984 70.136 11.984C70.616 11.984 71 12.256 71.288 12.8L73.16 16.328C73.304 16.616 73.376 16.888 73.376 17.144C73.376 17.608 73.104 17.984 72.56 18.272L72.368 18.368C72.128 18.496 71.88 18.56 71.624 18.56C71.128 18.56 70.736 18.288 70.448 17.744L70.4 17.672H70.376L63.152 18.416L62.888 18.44C62.184 18.44 61.688 18.088 61.4 17.384L61.136 16.736C60.992 16.4 60.92 16.088 60.92 15.8C60.92 15.48 61.016 15.144 61.208 14.792L63.056 11.312H62.168Z" fill="white"/>
<path d="M96.584 6.08001C97.048 6.08001 97.4 6.20801 97.64 6.46401C97.896 6.70401 98.024 7.05601 98.024 7.52V21.92C98.024 22.384 97.896 22.736 97.64 22.976C97.4 23.232 97.048 23.36 96.584 23.36H94.16C93.696 23.36 93.336 23.232 93.08 22.976C92.84 22.736 92.72 22.384 92.72 21.92V21.584C92.72 21.136 92.848 20.784 93.104 20.528C93.36 20.272 93.688 20.144 94.088 20.144H94.472V9.44001H93.056L91.448 22.184C91.4 22.6 91.264 22.912 91.04 23.12C90.816 23.344 90.52 23.456 90.152 23.456C90.024 23.456 89.928 23.448 89.864 23.432L89.192 23.36C88.776 23.312 88.456 23.168 88.232 22.928C88.024 22.704 87.92 22.408 87.92 22.04C87.92 21.912 87.928 21.816 87.944 21.752L89.504 9.44001H88.976C88.512 9.44001 88.152 9.32001 87.896 9.08001C87.656 8.82401 87.536 8.46401 87.536 8.00001V7.52C87.536 7.05601 87.656 6.70401 87.896 6.46401C88.152 6.20801 88.512 6.08001 88.976 6.08001H89.936L90.272 3.48801C90.336 3.04001 90.496 2.70401 90.752 2.48001C91.024 2.25601 91.384 2.15201 91.832 2.16801L92.456 2.216C92.872 2.23201 93.192 2.36001 93.416 2.60001C93.656 2.82401 93.776 3.13601 93.776 3.53601C93.776 3.64801 93.768 3.73601 93.752 3.80001L93.464 6.08001H96.584ZM79.28 6.27201C78.816 6.27201 78.456 6.15201 78.2 5.91201C77.96 5.65601 77.84 5.296 77.84 4.83201V4.35201C77.84 3.888 77.96 3.53601 78.2 3.29601C78.456 3.04001 78.816 2.91201 79.28 2.91201H85.256C85.72 2.91201 86.072 3.04001 86.312 3.29601C86.568 3.53601 86.696 3.888 86.696 4.35201V4.83201C86.696 5.296 86.568 5.65601 86.312 5.91201C86.072 6.15201 85.72 6.27201 85.256 6.27201H79.28ZM87.728 20.456C87.76 20.568 87.776 20.72 87.776 20.912C87.776 21.584 87.408 22.016 86.672 22.208L86.432 22.28C86.24 22.328 86.072 22.352 85.928 22.352C85.272 22.352 84.856 21.976 84.68 21.224L84.632 20.984L79.568 22.304C79.392 22.352 79.224 22.376 79.064 22.376C78.456 22.376 78.016 22.048 77.744 21.392L77.456 20.72C77.296 20.352 77.216 20 77.216 19.664C77.216 19.44 77.256 19.168 77.336 18.848L79.088 12.392H78.44C77.976 12.392 77.616 12.272 77.36 12.032C77.12 11.776 77 11.416 77 10.952V10.472C77 10.008 77.12 9.65601 77.36 9.41601C77.616 9.16001 77.976 9.03201 78.44 9.03201H86.144C86.608 9.03201 86.96 9.16001 87.2 9.41601C87.456 9.65601 87.584 10.008 87.584 10.472V10.952C87.584 11.416 87.456 11.776 87.2 12.032C86.96 12.272 86.608 12.392 86.144 12.392H82.688L80.96 18.608L83.888 17.888L83.648 16.952C83.6 16.776 83.576 16.616 83.576 16.472C83.576 15.8 83.96 15.384 84.728 15.224L84.944 15.176C85.136 15.144 85.28 15.128 85.376 15.128C85.712 15.128 85.992 15.224 86.216 15.416C86.44 15.608 86.592 15.888 86.672 16.256L87.728 20.456Z" fill="white"/>
<path d="M121.208 11.096C121.528 11.176 121.784 11.344 121.976 11.6C122.184 11.856 122.288 12.16 122.288 12.512V21.896C122.288 22.312 122.144 22.656 121.856 22.928C121.584 23.216 121.24 23.36 120.824 23.36H114.992C114.576 23.36 114.224 23.224 113.936 22.952C113.664 22.68 113.528 22.336 113.528 21.92C113.528 21.504 113.664 21.16 113.936 20.888C114.224 20.616 114.576 20.48 114.992 20.48H118.64V13.88H111.872C111.456 13.88 111.104 13.744 110.816 13.472C110.544 13.184 110.408 12.832 110.408 12.416V8.86401C110.408 8.44801 110.544 8.10401 110.816 7.83201C111.104 7.544 111.456 7.40001 111.872 7.40001H112.352C112.768 7.40001 113.112 7.544 113.384 7.83201C113.672 8.10401 113.816 8.44801 113.816 8.86401V11.048H117.656V5.57601H111.224C110.808 5.57601 110.456 5.44001 110.168 5.16801C109.896 4.88001 109.76 4.52801 109.76 4.112V4.06401C109.76 3.64801 109.896 3.30401 110.168 3.03201C110.456 2.74401 110.808 2.60001 111.224 2.60001H119.744C120.16 2.60001 120.504 2.74401 120.776 3.03201C121.064 3.30401 121.208 3.64801 121.208 4.06401V11.096ZM107.84 3.80001C108.256 3.80001 108.6 3.94401 108.872 4.23201C109.16 4.50401 109.304 4.84801 109.304 5.26401V19.976C109.304 20.392 109.16 20.736 108.872 21.008C108.6 21.296 108.256 21.44 107.84 21.44H102.968C102.552 21.44 102.2 21.296 101.912 21.008C101.64 20.736 101.504 20.392 101.504 19.976V5.26401C101.504 4.84801 101.64 4.50401 101.912 4.23201C102.2 3.94401 102.552 3.80001 102.968 3.80001H107.84ZM106.088 6.77601H104.864V18.464H106.088V6.77601ZM117.848 17.096C117.848 17.512 117.704 17.864 117.416 18.152C117.144 18.424 116.8 18.56 116.384 18.56H111.272C110.856 18.56 110.504 18.424 110.216 18.152C109.944 17.864 109.808 17.512 109.808 17.096V16.952C109.808 16.536 109.944 16.192 110.216 15.92C110.504 15.632 110.856 15.488 111.272 15.488H116.384C116.8 15.488 117.144 15.632 117.416 15.92C117.704 16.192 117.848 16.536 117.848 16.952V17.096Z" fill="white"/>
</svg>
