<svg width="146" height="28" viewBox="0 0 146 28" fill="none" xmlns="http://www.w3.org/2000/svg">
<path d="M24.4081 1.86057C24.9266 1.86057 25.3553 2.04357 25.6943 2.40959C26.0533 2.75527 26.2327 3.19245 26.2327 3.72113V4.27015C26.2327 4.79884 26.0533 5.24619 25.6943 5.6122C25.3553 5.95788 24.9266 6.13072 24.4081 6.13072H21.6263V25.5904C21.6263 26.1191 21.4468 26.5563 21.0879 26.902C20.7489 27.268 20.3202 27.451 19.8017 27.451L14.5372 27.4205C14.0187 27.4205 13.58 27.2375 13.2211 26.8715C12.8821 26.5258 12.7126 26.0886 12.7126 25.5599V25.4684C12.7126 24.9397 12.8821 24.4924 13.2211 24.1264C13.58 23.7807 14.0187 23.6078 14.5372 23.6078H16.8404V6.13072H13.3407C12.8222 6.13072 12.3835 5.95788 12.0246 5.6122C11.6856 5.24619 11.5161 4.79884 11.5161 4.27015V3.72113C11.5161 3.19245 11.6856 2.75527 12.0246 2.40959C12.3835 2.04357 12.8222 1.86057 13.3407 1.86057H24.4081ZM8.55481 2.04357C9.07328 2.04357 9.50202 2.22658 9.84102 2.59259C10.2 2.93827 10.3794 3.37545 10.3794 3.90414V24.7364C10.3794 25.2651 10.2 25.7023 9.84102 26.0479C9.50202 26.4139 9.07328 26.597 8.55481 26.597H1.82463C1.30615 26.597 0.867445 26.4139 0.508502 26.0479C0.169501 25.7023 0 25.2651 0 24.7364V3.90414C0 3.37545 0.169501 2.93827 0.508502 2.59259C0.867445 2.22658 1.30615 2.04357 1.82463 2.04357H8.55481ZM6.16185 6.13072H4.33723V22.5098H6.16185V6.13072Z" fill="#2A2D32"/>
<path d="M55.6661 14.549C55.9253 14.732 56.1247 14.9659 56.2643 15.2505C56.4238 15.5149 56.5036 15.7996 56.5036 16.1046C56.5036 16.5723 56.364 16.9789 56.0848 17.3246L55.7857 17.6906C55.4068 18.1786 54.9382 18.4227 54.3798 18.4227C54.0608 18.4227 53.7517 18.3312 53.4526 18.1481C53.7118 18.4735 53.8414 18.87 53.8414 19.3377C53.8414 19.48 53.8315 19.5919 53.8115 19.6732L53.7218 20.3137C53.642 20.8221 53.4127 21.2186 53.0338 21.5033C52.6549 21.7879 52.2162 21.8998 51.7177 21.8388L44.3594 20.8627C43.8808 20.8017 43.4919 20.6086 43.1928 20.2832C42.8937 19.9375 42.7441 19.5309 42.7441 19.0632C42.7441 18.9005 42.7541 18.7785 42.774 18.6972L42.8937 17.9956L42.9834 17.5991L42.0262 18.3922C41.6872 18.6768 41.3183 18.8192 40.9195 18.8192C40.3811 18.8192 39.9224 18.5955 39.5435 18.1481L39.2145 17.7516C38.8954 17.406 38.7359 16.9789 38.7359 16.4706C38.7359 15.8606 38.9852 15.3624 39.4837 14.976L43.8509 11.5599L41.5177 9.54684C41.2385 9.68918 40.9793 9.76035 40.74 9.76035C40.421 9.76035 40.1119 9.66885 39.8127 9.48584L39.6034 9.36383C39.3042 9.20116 39.0749 8.98766 38.9154 8.72331C38.7559 8.43864 38.6761 8.13362 38.6761 7.80828C38.6761 7.5236 38.7359 7.24909 38.8556 6.98475L41.6075 1.03704C41.767 0.711693 41.9863 0.457517 42.2655 0.27451C42.5447 0.0915037 42.8538 0 43.1928 0C43.3723 0 43.5517 0.0305018 43.7312 0.0915044L44.6884 0.396514C45.0872 0.518518 45.3963 0.732027 45.6157 1.03704C45.855 1.34205 45.9846 1.68773 46.0045 2.07407H54.0508C54.5693 2.07407 54.998 2.25708 55.337 2.62309C55.696 2.96877 55.8754 3.40596 55.8754 3.93464V5.97821C55.8754 6.34423 55.7458 6.67974 55.4866 6.98475L51.4186 11.5599L55.6661 14.549ZM36.7019 1.95207C37.2204 1.95207 37.6491 2.13508 37.9881 2.50109C38.3471 2.84677 38.5265 3.28395 38.5265 3.81264V24.5229C38.5265 25.0516 38.3471 25.4887 37.9881 25.8344C37.6491 26.2004 37.2204 26.3834 36.7019 26.3834H31.3776C30.8591 26.3834 30.4204 26.2004 30.0615 25.8344C29.7225 25.4887 29.553 25.0516 29.553 24.5229V3.81264C29.553 3.28395 29.7225 2.84677 30.0615 2.50109C30.4204 2.13508 30.8591 1.95207 31.3776 1.95207H36.7019ZM34.6978 5.94771H33.621V22.3878H34.6978V5.94771ZM51.598 5.94771H43.6714L43.6116 6.10022L48.0086 9.57734L51.598 5.94771ZM52.2561 17.5076C52.4755 17.5483 52.6749 17.6093 52.8543 17.6906L47.9787 13.5425L44.4491 16.4401C44.5089 16.4198 44.5887 16.4096 44.6884 16.4096C44.7881 16.4096 44.8679 16.4198 44.9277 16.4401L52.2561 17.5076ZM53.1535 23.3943C53.632 23.4553 54.0209 23.6587 54.32 24.0044C54.6191 24.35 54.7687 24.7567 54.7687 25.2244C54.7687 25.3667 54.7587 25.4786 54.7388 25.5599L54.6191 26.2309C54.5394 26.6783 54.34 27.0443 54.0209 27.329C53.7018 27.634 53.323 27.7865 52.8842 27.7865L52.5851 27.756L42.4151 26.3834C41.9365 26.3224 41.5476 26.1191 41.2485 25.7734C40.9494 25.4277 40.7998 25.0211 40.7998 24.5534C40.7998 24.411 40.8098 24.2992 40.8298 24.2179L40.9494 23.4858C41.0292 22.9978 41.2286 22.6115 41.5476 22.3268C41.8667 22.0421 42.2456 21.8998 42.6843 21.8998L42.9834 21.9303L53.1535 23.3943Z" fill="#2A2D32"/>
<path d="M84.0225 12.841C84.541 12.841 84.9698 13.024 85.3088 13.39C85.6677 13.7357 85.8472 14.1728 85.8472 14.7015V15.2505C85.8472 15.7792 85.6677 16.2266 85.3088 16.5926C84.9698 16.9383 84.541 17.1111 84.0225 17.1111H75.378L71.0707 26.5054C70.9112 26.8511 70.6818 27.1155 70.3827 27.2985C70.1035 27.5018 69.7944 27.6035 69.4554 27.6035C69.2161 27.6035 68.9569 27.5425 68.6777 27.4205L67.5112 26.902C67.1522 26.7393 66.873 26.5054 66.6736 26.2004C66.4742 25.8954 66.3745 25.5701 66.3745 25.2244C66.3745 24.9194 66.4543 24.6042 66.6138 24.2789L70.2631 17.1111H68.588C68.0695 17.1111 67.6308 16.9383 67.2719 16.5926C66.9329 16.2266 66.7634 15.7792 66.7634 15.2505V14.7015C66.7634 14.1728 66.9329 13.7357 67.2719 13.39C67.6308 13.024 68.0695 12.841 68.588 12.841H71.4296L71.6988 8.57081H69.3956C68.8771 8.57081 68.4384 8.39797 68.0795 8.05229C67.7405 7.68628 67.571 7.23893 67.571 6.71024V6.16122C67.571 5.63254 67.7405 5.19535 68.0795 4.84967C68.4384 4.48366 68.8771 4.30065 69.3956 4.30065H71.968L72.1176 2.16558C72.1575 1.63689 72.3569 1.20988 72.7158 0.884533C73.0947 0.559188 73.5334 0.406681 74.032 0.427015L75.1088 0.488019C75.6472 0.508353 76.0859 0.711693 76.4249 1.09804C76.7639 1.48439 76.9135 1.95207 76.8736 2.50109L76.7539 4.30065H81.7492C82.2677 4.30065 82.6964 4.48366 83.0354 4.84967C83.3944 5.19535 83.5739 5.63254 83.5739 6.16122V12.841H84.0225ZM63.0842 9.42484C62.3464 9.42484 61.7083 9.15033 61.1698 8.60131C60.6314 8.05229 60.3622 7.4016 60.3622 6.64924C60.3622 5.87654 60.6314 5.22585 61.1698 4.69717C61.7083 4.14815 62.3464 3.87364 63.0842 3.87364C63.842 3.87364 64.4901 4.14815 65.0285 4.69717C65.5669 5.22585 65.8361 5.87654 65.8361 6.64924C65.8361 7.42193 65.5669 8.08279 65.0285 8.63181C64.4901 9.16049 63.842 9.42484 63.0842 9.42484ZM78.9076 8.57081H76.4548L76.1557 12.841H78.9076V8.57081ZM64.7294 13.8475C65.1481 13.9695 65.4772 14.2033 65.7165 14.549C65.9757 14.8744 66.1053 15.2404 66.1053 15.6471C66.1053 15.8301 66.0754 16.0131 66.0156 16.1961L63.5628 24.7364C63.4432 25.1634 63.2338 25.4887 62.9346 25.7124C62.6355 25.9564 62.2866 26.0784 61.8877 26.0784C61.7083 26.0784 61.5088 26.0479 61.2895 25.9869L60.5118 25.7429C60.113 25.6209 59.7939 25.3972 59.5546 25.0719C59.3153 24.7669 59.1957 24.411 59.1957 24.0044C59.1957 23.8214 59.2256 23.6383 59.2854 23.4553L61.7083 14.915C61.8279 14.5084 62.0473 14.183 62.3663 13.939C62.6854 13.695 63.0443 13.573 63.4432 13.573C63.6625 13.573 63.832 13.5933 63.9517 13.634L64.7294 13.8475ZM83.0354 24.1264C83.195 24.4517 83.2747 24.7669 83.2747 25.0719C83.2747 25.3972 83.185 25.6921 83.0055 25.9564C82.846 26.2411 82.6067 26.4749 82.2877 26.658L81.6296 27.024C81.3105 27.1866 81.0114 27.268 80.7322 27.268C80.4132 27.268 80.1141 27.1765 79.8349 26.9935C79.5557 26.8308 79.3264 26.5868 79.1469 26.2614L76.4548 21.2288C76.2953 20.9644 76.2155 20.6492 76.2155 20.2832C76.2155 19.9579 76.2953 19.6529 76.4548 19.3682C76.6343 19.0632 76.8836 18.8293 77.2026 18.6667L77.9205 18.3007C78.1997 18.1583 78.4888 18.0871 78.788 18.0871C79.107 18.0871 79.4061 18.1786 79.6853 18.3617C79.9645 18.5243 80.1838 18.7582 80.3434 19.0632L83.0354 24.1264Z" fill="#2A2D32"/>
<path d="M114.204 23.6078C114.543 23.7502 114.802 23.9637 114.981 24.2484C115.181 24.5534 115.28 24.8889 115.28 25.2549C115.28 25.5599 115.221 25.8446 115.101 26.1089L114.922 26.5054C114.762 26.8511 114.543 27.1155 114.263 27.2985C113.984 27.5018 113.675 27.6035 113.336 27.6035C113.097 27.6035 112.818 27.5323 112.499 27.39L104.931 23.8214V26.1394C104.931 26.6681 104.751 27.1053 104.393 27.451C104.054 27.817 103.625 28 103.106 28H101.82C101.302 28 100.863 27.817 100.504 27.451C100.165 27.1053 99.9955 26.6681 99.9955 26.1394V23.8214L92.697 27.3595C92.3779 27.5018 92.0888 27.573 91.8295 27.573C91.4905 27.573 91.1815 27.4713 90.9023 27.268C90.6231 27.085 90.4037 26.8206 90.2442 26.4749L90.0647 26.1089C89.9451 25.8446 89.8853 25.5599 89.8853 25.2549C89.8853 24.9092 89.975 24.5839 90.1545 24.2789C90.3539 23.9942 90.6231 23.7705 90.9621 23.6078L99.8759 19.4292L99.9955 19.3682V17.8126H95.0899V19.7647C95.0899 20.2934 94.9105 20.7407 94.5515 21.1068C94.2125 21.4524 93.7838 21.6253 93.2653 21.6253H92.4577C91.9392 21.6253 91.5005 21.4524 91.1416 21.1068C90.8026 20.7407 90.6331 20.2934 90.6331 19.7647V15.8911C90.6331 15.3624 90.8026 14.9252 91.1416 14.5795C91.5005 14.2135 91.9392 14.0305 92.4577 14.0305H99.816V13.0545H91.6202C91.1017 13.0545 90.663 12.8816 90.304 12.5359C89.965 12.1903 89.7955 11.7531 89.7955 11.2244C89.7955 10.716 89.965 10.289 90.304 9.94335C90.663 9.59768 91.1017 9.42484 91.6202 9.42484H99.8459C99.9058 8.95715 100.095 8.58097 100.414 8.2963C100.753 8.01162 101.162 7.86928 101.641 7.86928H103.435C102.837 7.50327 102.538 6.97458 102.538 6.28323C102.538 5.87654 102.648 5.5207 102.867 5.21569L105.499 1.18954C105.659 0.945534 105.858 0.752361 106.098 0.610023C106.357 0.467684 106.626 0.396514 106.905 0.396514C107.224 0.396514 107.513 0.467684 107.773 0.610023L108.072 0.762529C108.391 0.945535 108.64 1.17938 108.82 1.46405C109.019 1.74873 109.129 2.05374 109.149 2.37908H113.576C114.094 2.37908 114.523 2.55193 114.862 2.8976C115.221 3.24328 115.4 3.68047 115.4 4.20915C115.4 4.73784 115.221 5.17502 114.862 5.5207C114.523 5.86638 114.094 6.03922 113.576 6.03922H111.96C112.02 6.22222 112.05 6.4154 112.05 6.61874C112.05 6.94408 111.97 7.24909 111.811 7.53377C111.651 7.79811 111.412 8.01162 111.093 8.17429C110.774 8.33696 110.475 8.4183 110.195 8.4183C109.876 8.4183 109.587 8.33696 109.328 8.17429C109.069 8.01162 108.869 7.77778 108.73 7.47277L108.102 6.03922H107.174L106.187 7.53377C105.988 7.81845 105.749 8.03195 105.469 8.17429C105.19 8.31663 104.891 8.37763 104.572 8.3573C104.871 8.62164 105.051 8.97749 105.11 9.42484H113.187C113.705 9.42484 114.134 9.59768 114.473 9.94335C114.832 10.289 115.011 10.716 115.011 11.2244C115.011 11.7531 114.832 12.1903 114.473 12.5359C114.134 12.8816 113.705 13.0545 113.187 13.0545H105.14V14.0305H112.678C113.197 14.0305 113.625 14.2135 113.964 14.5795C114.323 14.9252 114.503 15.3624 114.503 15.8911V20.1002C114.503 20.6289 114.323 21.0763 113.964 21.4423C113.625 21.7879 113.197 21.9608 112.678 21.9608H111.033C110.873 21.9608 110.674 21.9404 110.435 21.8998L114.204 23.6078ZM90.9322 7.89978C90.6331 7.71678 90.4037 7.4931 90.2442 7.22876C90.0847 6.94408 90.0049 6.63907 90.0049 6.31373C90.0049 5.90705 90.1146 5.54103 90.334 5.21569L92.9662 1.18954C93.1257 0.945534 93.3251 0.752361 93.5644 0.610023C93.8237 0.467684 94.0929 0.396514 94.3721 0.396514C94.6911 0.396514 94.9803 0.467684 95.2395 0.610023L95.5386 0.762529C95.8577 0.945535 96.107 1.17938 96.2864 1.46405C96.4858 1.74873 96.5955 2.05374 96.6154 2.37908H101.042C101.561 2.37908 101.99 2.55193 102.329 2.8976C102.688 3.24328 102.867 3.68047 102.867 4.20915C102.867 4.73784 102.688 5.17502 102.329 5.5207C101.99 5.86638 101.561 6.03922 101.042 6.03922H99.4272C99.487 6.22222 99.5169 6.4154 99.5169 6.61874C99.5169 6.94408 99.4371 7.24909 99.2776 7.53377C99.1181 7.79811 98.8788 8.01162 98.5597 8.17429C98.2407 8.33696 97.9316 8.4183 97.6325 8.4183C97.3134 8.4183 97.0242 8.33696 96.765 8.17429C96.5257 8.01162 96.3363 7.77778 96.1967 7.47277L95.5984 6.03922H94.6413L93.6542 7.53377C93.2753 8.08279 92.7768 8.3573 92.1586 8.3573C91.8395 8.3573 91.5304 8.2658 91.2313 8.08279L90.9322 7.89978ZM104.961 19.3987L109.777 21.5948C109.398 21.3101 109.208 20.9441 109.208 20.4967C109.208 20.2324 109.278 19.9985 109.418 19.7952C109.577 19.5715 109.787 19.3987 110.046 19.2767V17.8126H104.931V19.3987H104.961Z" fill="#2A2D32"/>
<path d="M122.28 9.60784C121.702 9.60784 121.253 9.45534 120.934 9.15033C120.635 8.82498 120.485 8.36747 120.485 7.77778V2.98911C120.485 2.39942 120.635 1.95207 120.934 1.64706C121.253 1.32172 121.702 1.15904 122.28 1.15904H129.848C130.426 1.15904 130.865 1.32172 131.164 1.64706C131.483 1.95207 131.642 2.39942 131.642 2.98911V7.77778C131.642 8.36747 131.483 8.82498 131.164 9.15033C130.865 9.45534 130.426 9.60784 129.848 9.60784H122.28ZM135.022 9.60784C134.444 9.60784 133.995 9.45534 133.676 9.15033C133.377 8.82498 133.228 8.36747 133.228 7.77778V2.98911C133.228 2.39942 133.377 1.95207 133.676 1.64706C133.995 1.32172 134.444 1.15904 135.022 1.15904H142.59C143.168 1.15904 143.607 1.32172 143.906 1.64706C144.225 1.95207 144.385 2.39942 144.385 2.98911V7.77778C144.385 8.36747 144.225 8.82498 143.906 9.15033C143.607 9.45534 143.168 9.60784 142.59 9.60784H135.022ZM124.434 6.61874H127.873V4.14815H124.434V6.61874ZM136.997 6.61874H140.436V4.14815H136.997V6.61874ZM144.983 16.8061C145.661 17.1924 146 17.711 146 18.3617C146 18.6667 145.93 18.9615 145.791 19.2462L145.611 19.7037C145.452 20.1104 145.232 20.4052 144.953 20.5882C144.694 20.7712 144.395 20.8424 144.056 20.8017V25.5294C144.056 26.1191 143.896 26.5664 143.577 26.8715C143.278 27.1968 142.839 27.3595 142.261 27.3595H135.112C134.534 27.3595 134.085 27.1968 133.766 26.8715C133.467 26.5664 133.317 26.1191 133.317 25.5294V19.6122C133.317 19.0225 133.467 18.5752 133.766 18.2702C134.085 17.9448 134.534 17.7821 135.112 17.7821H138.971L134.813 15.1285C134.594 14.9862 134.404 14.8337 134.245 14.671H130.565L126.019 17.7821H129.907C130.486 17.7821 130.924 17.9448 131.224 18.2702C131.543 18.5752 131.702 19.0225 131.702 19.6122V25.5294C131.702 26.1191 131.543 26.5664 131.224 26.8715C130.924 27.1968 130.486 27.3595 129.907 27.3595H122.848C122.27 27.3595 121.821 27.1968 121.502 26.8715C121.203 26.5664 121.053 26.1191 121.053 25.5294V20.8932C120.475 20.9542 119.967 20.6696 119.528 20.0392L119.378 19.8257C119.099 19.419 118.96 19.0428 118.96 18.6972C118.96 18.1481 119.269 17.6703 119.887 17.2636L123.985 14.671H121.024C120.445 14.671 119.997 14.5389 119.678 14.2745C119.378 13.9898 119.229 13.5832 119.229 13.0545C119.229 12.5461 119.378 12.1598 119.678 11.8954C119.997 11.6107 120.445 11.4684 121.024 11.4684H129.339L129.429 11.1024C129.648 10.289 130.187 9.88235 131.044 9.88235C131.283 9.88235 131.463 9.89252 131.582 9.91286L132.719 10.0959C133.158 10.1569 133.487 10.3094 133.706 10.5534C133.946 10.7974 134.075 11.1024 134.095 11.4684H138.133C138.293 11.0007 138.542 10.6449 138.881 10.4009C139.24 10.1365 139.679 10.0044 140.197 10.0044C140.716 10.0044 141.144 10.1365 141.483 10.4009C141.842 10.6449 142.101 11.0007 142.261 11.4684H143.876C144.455 11.4684 144.893 11.6107 145.192 11.8954C145.511 12.1598 145.671 12.5461 145.671 13.0545C145.671 13.5832 145.511 13.9898 145.192 14.2745C144.893 14.5389 144.455 14.671 143.876 14.671H141.274L144.983 16.8061ZM128.143 20.8017H124.822V24.1264H128.143V20.8017ZM140.287 20.8017H136.907V24.1264H140.287V20.8017Z" fill="#2A2D32"/>
</svg>
