<svg width="128" height="24" viewBox="0 0 128 24" fill="none" xmlns="http://www.w3.org/2000/svg">
<path d="M50.256 17.704C50.624 17.704 50.904 17.832 51.096 18.088C51.304 18.328 51.408 18.68 51.408 19.144V20.8C51.408 21.264 51.28 21.616 51.024 21.856C50.784 22.112 50.432 22.24 49.968 22.24H41.376C40.912 22.24 40.552 22.112 40.296 21.856C40.056 21.616 39.936 21.264 39.936 20.8V6.856H39.792L38.784 21.088C38.752 21.504 38.632 21.832 38.424 22.072C38.216 22.328 37.936 22.456 37.584 22.456C37.44 22.456 37.328 22.448 37.248 22.432L37.008 22.384C36.528 22.288 36.176 22.112 35.952 21.856C35.728 21.616 35.632 21.28 35.664 20.848L36.696 6.856C36.328 6.808 36.048 6.688 35.856 6.496V6.616V6.808C35.856 7.256 35.728 7.608 35.472 7.864C35.232 8.12 34.92 8.248 34.536 8.248V12.064C34.92 12.032 35.24 12.12 35.496 12.328C35.752 12.52 35.912 12.824 35.976 13.24L36 13.408C36.016 13.488 36.024 13.6 36.024 13.744C36.024 14.464 35.632 14.912 34.848 15.088L34.536 15.16V20.92C34.536 21.384 34.408 21.736 34.152 21.976C33.912 22.232 33.56 22.36 33.096 22.36H31.608C31.144 22.36 30.784 22.24 30.528 22C30.288 21.76 30.168 21.408 30.168 20.944C30.168 20.064 30.552 19.584 31.32 19.504V15.736C30.696 15.688 30.312 15.288 30.168 14.536L30.144 14.344C30.112 14.152 30.096 14.024 30.096 13.96C30.096 13.24 30.496 12.808 31.296 12.664H31.32V8.248C30.904 8.248 30.576 8.128 30.336 7.888C30.112 7.632 30 7.272 30 6.808V6.616C30 6.152 30.112 5.8 30.336 5.56C30.576 5.304 30.904 5.176 31.32 5.176V2.44C31.32 1.976 31.44 1.624 31.68 1.384C31.936 1.128 32.296 1 32.76 1H33.096C33.56 1 33.912 1.128 34.152 1.384C34.408 1.624 34.536 1.976 34.536 2.44V5.176C34.92 5.176 35.232 5.296 35.472 5.536V5.416V5.224C35.472 4.76 35.592 4.408 35.832 4.168C36.088 3.912 36.448 3.784 36.912 3.784L37.008 2.512C37.04 2.08 37.168 1.744 37.392 1.504C37.616 1.264 37.92 1.144 38.304 1.144L38.544 1.168L38.736 1.192C39.696 1.32 40.144 1.832 40.08 2.728L40.008 3.784H41.52C41.984 3.784 42.336 3.912 42.576 4.168C42.832 4.408 42.96 4.76 42.96 5.224V19.432H49.104V19.144C49.104 18.68 49.2 18.328 49.392 18.088C49.6 17.832 49.888 17.704 50.256 17.704ZM44.352 6.784C43.728 6.608 43.416 6.144 43.416 5.392V5.248C43.416 4.384 43.824 3.904 44.64 3.808L44.76 2.536C44.856 1.672 45.376 1.24 46.32 1.24H46.416C46.864 1.24 47.2 1.392 47.424 1.696C47.664 1.984 47.76 2.36 47.712 2.824L47.616 3.808H49.656C50.12 3.808 50.472 3.936 50.712 4.192C50.968 4.432 51.096 4.784 51.096 5.248V16.24C51.096 16.704 50.968 17.064 50.712 17.32C50.472 17.56 50.12 17.68 49.656 17.68H48.6C48.136 17.68 47.776 17.568 47.52 17.344C47.28 17.104 47.16 16.776 47.16 16.36C47.16 15.576 47.512 15.144 48.216 15.064V6.832H47.328L46.416 16.648C46.384 17.064 46.256 17.392 46.032 17.632C45.824 17.856 45.544 17.968 45.192 17.968C45.128 17.968 45 17.952 44.808 17.92L44.688 17.896C44.224 17.8 43.888 17.632 43.68 17.392C43.472 17.136 43.392 16.776 43.44 16.312L44.352 6.784Z" fill="white"/>
<path d="M74.496 19.456C74.832 19.568 75.096 19.752 75.288 20.008C75.48 20.264 75.576 20.536 75.576 20.824C75.576 21.016 75.544 21.176 75.48 21.304L75.456 21.352C75.344 21.64 75.168 21.864 74.928 22.024C74.688 22.2 74.424 22.288 74.136 22.288C74.04 22.288 73.88 22.256 73.656 22.192L68.328 20.368L67.536 21.712C67.408 21.936 67.232 22.112 67.008 22.24C66.8 22.368 66.576 22.432 66.336 22.432C66.112 22.432 65.872 22.368 65.616 22.24L65.328 22.096C65.072 21.952 64.872 21.76 64.728 21.52C64.584 21.296 64.512 21.056 64.512 20.8C64.512 20.544 64.592 20.272 64.752 19.984L65.16 19.312L64.776 19.168C64.472 19.056 64.224 18.88 64.032 18.64C63.856 18.4 63.768 18.128 63.768 17.824C63.768 17.408 63.904 17.072 64.176 16.816C64.448 16.56 64.776 16.432 65.16 16.432C65.272 16.432 65.44 16.464 65.664 16.528L66.648 16.864L67.344 15.712H64.992C64.576 15.712 64.224 15.576 63.936 15.304C63.664 15.016 63.528 14.664 63.528 14.248V6.856C63.528 6.44 63.664 6.096 63.936 5.824C64.224 5.536 64.576 5.392 64.992 5.392H67.68V4.312H65.16C64.744 4.312 64.392 4.176 64.104 3.904C63.832 3.632 63.696 3.296 63.696 2.896C63.696 2.496 63.832 2.16 64.104 1.888C64.392 1.616 64.744 1.48 65.16 1.48H73.944C74.36 1.48 74.704 1.616 74.976 1.888C75.264 2.16 75.408 2.496 75.408 2.896C75.408 3.296 75.264 3.632 74.976 3.904C74.704 4.176 74.36 4.312 73.944 4.312H71.136V5.392H73.848C74.264 5.392 74.608 5.536 74.88 5.824C75.168 6.096 75.312 6.44 75.312 6.856V14.248C75.312 14.664 75.168 15.016 74.88 15.304C74.608 15.576 74.264 15.712 73.848 15.712H71.112C71.112 15.712 71.104 15.72 71.088 15.736L69.792 17.896L74.496 19.456ZM61.704 1.672C62.12 1.672 62.464 1.816 62.736 2.104C63.024 2.376 63.168 2.72 63.168 3.136V3.184C63.168 3.6 63.024 3.952 62.736 4.24C62.464 4.512 62.12 4.648 61.704 4.648H59.424C59.456 4.744 59.472 4.88 59.472 5.056C59.472 5.232 59.464 5.36 59.448 5.44L59.016 7.912H61.224C61.64 7.912 61.984 8.056 62.256 8.344C62.544 8.616 62.688 8.96 62.688 9.376V20.824C62.688 21.24 62.544 21.584 62.256 21.856C61.984 22.144 61.64 22.288 61.224 22.288H57.312C56.896 22.288 56.544 22.144 56.256 21.856C55.984 21.584 55.848 21.24 55.848 20.824V16.576H55.824C55.472 16.528 55.176 16.376 54.936 16.12C54.712 15.864 54.6 15.552 54.6 15.184C54.6 15.056 54.608 14.96 54.624 14.896L56.232 4.768L56.256 4.648H55.992C55.576 4.648 55.224 4.512 54.936 4.24C54.664 3.952 54.528 3.6 54.528 3.184V3.136C54.528 2.72 54.664 2.376 54.936 2.104C55.224 1.816 55.576 1.672 55.992 1.672H61.704ZM66.792 9.424H68.04V8.152H66.792V9.424ZM72.048 8.152H70.8V9.424C71.12 9.456 71.384 9.568 71.592 9.76C71.8 9.952 71.904 10.192 71.904 10.48C71.904 10.768 71.8 11.016 71.592 11.224C71.384 11.416 71.12 11.528 70.8 11.56V12.952H72.048V8.152ZM59.904 10.648H58.848V19.792H59.904V10.648ZM66.792 12.952H68.04V11.56H66.792V12.952Z" fill="white"/>
<path d="M97.368 7.552C97.784 7.552 98.128 7.696 98.4 7.984C98.688 8.256 98.832 8.6 98.832 9.016V19.384C98.832 19.8 98.688 20.144 98.4 20.416C98.128 20.704 97.784 20.848 97.368 20.848H94.512C94.096 20.848 93.744 20.704 93.456 20.416C93.184 20.144 93.048 19.8 93.048 19.384V18.928C93.048 18.512 93.144 18.168 93.336 17.896C93.528 17.608 93.776 17.464 94.08 17.464H95.112V10.864H90.72V21.136C90.72 21.552 90.576 21.896 90.288 22.168C90.016 22.456 89.672 22.6 89.256 22.6H88.344C87.928 22.6 87.576 22.456 87.288 22.168C87.016 21.896 86.88 21.552 86.88 21.136V10.864H82.488V19.384C82.488 19.8 82.344 20.144 82.056 20.416C81.784 20.704 81.44 20.848 81.024 20.848H80.232C79.816 20.848 79.464 20.704 79.176 20.416C78.904 20.144 78.768 19.8 78.768 19.384V9.016C78.768 8.6 78.904 8.256 79.176 7.984C79.464 7.696 79.816 7.552 80.232 7.552H86.88V5.152L80.472 5.584C80.088 5.616 79.752 5.52 79.464 5.296C79.192 5.072 79.024 4.76 78.96 4.36L78.912 4.072C78.896 4.008 78.888 3.92 78.888 3.808C78.888 3.408 79.016 3.072 79.272 2.8C79.528 2.528 79.864 2.376 80.28 2.344L96.768 1.216C97.168 1.184 97.512 1.288 97.8 1.528C98.088 1.768 98.256 2.088 98.304 2.488L98.328 2.776C98.376 3.224 98.272 3.608 98.016 3.928C97.76 4.248 97.408 4.424 96.96 4.456L90.72 4.888V7.552H97.368Z" fill="white"/>
</svg>
