<svg width="128" height="25" viewBox="0 0 128 25" fill="none" xmlns="http://www.w3.org/2000/svg">
<path d="M25.784 9.10401C26.264 9.42401 26.504 9.80001 26.504 10.232C26.504 10.488 26.408 10.776 26.216 11.096L25.784 11.744C25.48 12.224 25.12 12.464 24.704 12.464C24.416 12.464 24.112 12.352 23.792 12.128L15.368 6.34401L7.976 12.104C7.624 12.376 7.296 12.512 6.992 12.512C6.624 12.512 6.272 12.32 5.936 11.936L5.432 11.336C5.144 11 5 10.672 5 10.352C5 9.96801 5.208 9.61601 5.624 9.29601L15.008 2.14401C15.408 1.85601 15.776 1.71201 16.112 1.71201C16.432 1.71201 16.736 1.83201 17.024 2.07201L17.576 2.552C18.024 2.95201 18.248 3.31201 18.248 3.63201C18.248 3.77601 18.192 3.94401 18.08 4.13601L25.784 9.10401ZM17.888 10.4C17.888 10.96 17.68 11.448 17.264 11.864C16.864 12.264 16.384 12.464 15.824 12.464C15.264 12.464 14.776 12.264 14.36 11.864C13.96 11.448 13.76 10.96 13.76 10.4C13.76 9.84001 13.96 9.36001 14.36 8.96001C14.776 8.54401 15.264 8.33601 15.824 8.33601C16.384 8.33601 16.864 8.54401 17.264 8.96001C17.68 9.36001 17.888 9.84001 17.888 10.4ZM22.136 13.472C22.6 13.472 22.952 13.6 23.192 13.856C23.448 14.096 23.576 14.448 23.576 14.912V15.704C23.576 16.344 23.392 16.944 23.024 17.504L19.424 22.76C19.088 23.24 18.688 23.48 18.224 23.48C17.984 23.48 17.728 23.408 17.456 23.264L16.688 22.88C16.144 22.576 15.872 22.208 15.872 21.776C15.872 21.504 15.984 21.208 16.208 20.888L19.208 16.688H9.032C8.568 16.688 8.208 16.568 7.952 16.328C7.712 16.072 7.592 15.712 7.592 15.248V14.912C7.592 14.448 7.712 14.096 7.952 13.856C8.208 13.6 8.568 13.472 9.032 13.472H22.136Z" fill="white"/>
<path d="M48.992 10.712C49.408 10.712 49.752 10.848 50.024 11.12C50.312 11.392 50.456 11.744 50.456 12.176V12.536C50.456 12.968 50.32 13.328 50.048 13.616C49.776 13.888 49.424 14.024 48.992 14.024H39.176L33.848 22.424C33.704 22.648 33.528 22.816 33.32 22.928C33.112 23.056 32.888 23.12 32.648 23.12C32.376 23.12 32.12 23.048 31.88 22.904L31.064 22.424C30.824 22.28 30.64 22.096 30.512 21.872C30.384 21.648 30.32 21.416 30.32 21.176C30.32 20.888 30.408 20.608 30.584 20.336L34.64 14.024H30.656C30.24 14.024 29.888 13.888 29.6 13.616C29.328 13.344 29.192 12.992 29.192 12.56V12.2C29.192 11.768 29.328 11.416 29.6 11.144C29.872 10.856 30.224 10.712 30.656 10.712H36.824L37.76 6.68001H31.808C31.392 6.68001 31.04 6.54401 30.752 6.27201C30.48 6.00001 30.344 5.64801 30.344 5.216V4.85601C30.344 4.42401 30.48 4.07201 30.752 3.80001C31.024 3.51201 31.376 3.36801 31.808 3.36801H47.744C48.16 3.36801 48.504 3.50401 48.776 3.776C49.064 4.04801 49.208 4.40001 49.208 4.83201V5.19201C49.208 5.62401 49.072 5.98401 48.8 6.27201C48.528 6.54401 48.176 6.68001 47.744 6.68001H41.84L40.928 10.712H48.992ZM49.088 19.832C49.36 20.136 49.496 20.464 49.496 20.816C49.496 21.248 49.328 21.616 48.992 21.92L48.296 22.568C47.992 22.84 47.664 22.976 47.312 22.976C46.912 22.976 46.552 22.808 46.232 22.472L41.312 17.12C41.04 16.816 40.904 16.488 40.904 16.136C40.904 15.72 41.072 15.36 41.408 15.056L42.08 14.432C42.352 14.176 42.672 14.048 43.04 14.048C43.456 14.048 43.824 14.208 44.144 14.528L49.088 19.832Z" fill="white"/>
<path d="M64.232 9.34401C64.072 9.61601 63.848 9.81601 63.56 9.94401H71.384C71.8 9.94401 72.144 10.088 72.416 10.376C72.704 10.648 72.848 10.992 72.848 11.408V12.704C72.848 12.992 72.744 13.256 72.536 13.496L66.56 20.072H71V18.848C71 18.432 71.136 18.088 71.408 17.816C71.696 17.528 72.048 17.384 72.464 17.384H72.944C73.36 17.384 73.704 17.528 73.976 17.816C74.264 18.088 74.408 18.432 74.408 18.848V21.776C74.408 22.192 74.264 22.536 73.976 22.808C73.704 23.096 73.36 23.24 72.944 23.24H63.416C63.128 23.24 62.872 23.16 62.648 23C62.424 22.84 62.264 22.624 62.168 22.352L61.712 21.032C61.664 20.888 61.64 20.736 61.64 20.576C61.64 20.24 61.744 19.96 61.952 19.736L67.904 13.16H63.392C62.976 13.16 62.624 13.024 62.336 12.752C62.064 12.464 61.928 12.112 61.928 11.696V11.408C61.928 11.088 62.016 10.808 62.192 10.568C62.368 10.312 62.592 10.136 62.864 10.04C62.752 10.024 62.624 9.98401 62.48 9.92001L61.832 9.63201C61.512 9.48801 61.264 9.28001 61.088 9.00801V19.976C61.088 20.392 60.944 20.736 60.656 21.008C60.384 21.296 60.04 21.44 59.624 21.44H54.752C54.336 21.44 53.984 21.296 53.696 21.008C53.424 20.736 53.288 20.392 53.288 19.976V5.26401C53.288 4.84801 53.424 4.50401 53.696 4.23201C53.984 3.94401 54.336 3.80001 54.752 3.80001H59.624C60.04 3.80001 60.384 3.94401 60.656 4.23201C60.944 4.50401 61.088 4.84801 61.088 5.26401V7.52001L61.112 7.47201L63.824 2.81601C63.952 2.59201 64.12 2.41601 64.328 2.28801C64.536 2.16001 64.76 2.096 65 2.096C65.176 2.096 65.368 2.136 65.576 2.216L66.272 2.50401C66.576 2.63201 66.816 2.82401 66.992 3.08001C67.168 3.33601 67.256 3.61601 67.256 3.92001C67.256 4.00001 67.24 4.12001 67.208 4.28001H72.944C73.36 4.28001 73.704 4.42401 73.976 4.71201C74.264 4.98401 74.408 5.32801 74.408 5.74401V6.08001C74.408 6.49601 74.264 6.84801 73.976 7.13601C73.704 7.40801 73.36 7.544 72.944 7.544H65.312L64.232 9.34401ZM57.92 6.872H56.576V18.368H57.92V6.872Z" fill="white"/>
<path d="M97.184 9.41601C97.6 9.41601 97.944 9.56001 98.216 9.84801C98.504 10.12 98.648 10.464 98.648 10.88V11.312C98.648 11.728 98.504 12.08 98.216 12.368C97.944 12.64 97.6 12.776 97.184 12.776H93.128V22.112C93.128 22.528 92.984 22.872 92.696 23.144C92.424 23.432 92.08 23.576 91.664 23.576H90.752C90.336 23.576 89.984 23.432 89.696 23.144C89.424 22.872 89.288 22.528 89.288 22.112V12.776H85.52C85.104 12.776 84.752 12.64 84.464 12.368C84.192 12.08 84.056 11.728 84.056 11.312V10.88C84.056 10.464 84.192 10.12 84.464 9.84801C84.752 9.56001 85.104 9.41601 85.52 9.41601H89.288V3.46401C89.288 3.04801 89.424 2.70401 89.696 2.432C89.984 2.144 90.336 2 90.752 2H91.664C92.08 2 92.424 2.144 92.696 2.432C92.984 2.70401 93.128 3.04801 93.128 3.46401V9.41601H97.184ZM82.064 9.58401C82.48 9.58401 82.824 9.72801 83.096 10.016C83.384 10.288 83.528 10.632 83.528 11.048V22.136C83.528 22.552 83.384 22.896 83.096 23.168C82.824 23.456 82.48 23.6 82.064 23.6H81.248C80.832 23.6 80.48 23.456 80.192 23.168C79.92 22.896 79.784 22.552 79.784 22.136V12.584C79.624 12.616 79.512 12.632 79.448 12.632C79.224 12.632 78.984 12.568 78.728 12.44L77.936 12.032C77.424 11.744 77.168 11.328 77.168 10.784C77.168 10.544 77.224 10.312 77.336 10.088L80.84 3.15201C80.968 2.89601 81.144 2.696 81.368 2.552C81.592 2.408 81.84 2.336 82.112 2.336C82.304 2.336 82.528 2.392 82.784 2.50401L83.6 2.91201C83.856 3.04001 84.056 3.22401 84.2 3.46401C84.36 3.68801 84.44 3.93601 84.44 4.208C84.44 4.44801 84.384 4.68001 84.272 4.90401L81.872 9.58401H82.064Z" fill="white"/>
<path d="M105.056 13.376C104.752 13.808 104.36 14.024 103.88 14.024C103.544 14.024 103.224 13.904 102.92 13.664L102.488 13.328C102.12 13.04 101.936 12.656 101.936 12.176C101.936 11.856 102.024 11.576 102.2 11.336L108.056 3.12801C108.2 2.93601 108.368 2.79201 108.56 2.69601C108.768 2.58401 108.984 2.52801 109.208 2.52801C109.48 2.52801 109.736 2.60001 109.976 2.74401L110.504 3.08001C110.744 3.22401 110.928 3.40801 111.056 3.63201C111.184 3.85601 111.248 4.08801 111.248 4.328C111.248 4.66401 111.144 4.96801 110.936 5.24001L105.056 13.376ZM121.904 21.08C121.984 21.32 122.024 21.52 122.024 21.68C122.024 22 121.928 22.28 121.736 22.52C121.56 22.76 121.32 22.936 121.016 23.048L120.464 23.24C120.24 23.304 120.064 23.336 119.936 23.336C119.648 23.336 119.384 23.248 119.144 23.072C118.92 22.912 118.752 22.688 118.64 22.4L118.352 21.656L104.984 22.952C104.664 22.984 104.368 22.912 104.096 22.736C103.824 22.56 103.64 22.312 103.544 21.992L103.112 20.552C103.064 20.408 103.04 20.272 103.04 20.144C103.04 19.888 103.12 19.656 103.28 19.448L114.92 3.46401C115.208 3.04801 115.584 2.84001 116.048 2.84001C116.288 2.84001 116.544 2.92001 116.816 3.08001L117.44 3.46401C117.68 3.60801 117.864 3.79201 117.992 4.01601C118.12 4.24001 118.184 4.47201 118.184 4.71201C118.184 5.04801 118.08 5.35201 117.872 5.62401L107.816 19.52L117.152 18.632L115.88 15.392C115.8 15.184 115.76 14.992 115.76 14.816C115.76 14.512 115.848 14.24 116.024 14C116.216 13.744 116.464 13.56 116.768 13.448L117.224 13.28C117.4 13.216 117.584 13.184 117.776 13.184C118.048 13.184 118.304 13.264 118.544 13.424C118.784 13.584 118.96 13.808 119.072 14.096L121.904 21.08Z" fill="white"/>
</svg>
