<svg width="128" height="25" viewBox="0 0 128 25" fill="none" xmlns="http://www.w3.org/2000/svg">
<path d="M39.824 14.744L38.168 21.992C38.088 22.36 37.92 22.648 37.664 22.856C37.408 23.08 37.112 23.192 36.776 23.192C36.632 23.192 36.488 23.168 36.344 23.12L36.176 23.072C35.856 22.976 35.6 22.808 35.408 22.568C35.232 22.344 35.144 22.072 35.144 21.752C35.144 21.656 35.16 21.528 35.192 21.368L36.752 14.72C36.4 14.656 36.112 14.496 35.888 14.24C35.664 13.968 35.552 13.648 35.552 13.28V13.064C35.552 12.648 35.688 12.304 35.96 12.032C36.248 11.744 36.6 11.6 37.016 11.6H37.568L37.712 8.432H37.256C36.84 8.432 36.488 8.296 36.2 8.024C35.928 7.736 35.792 7.384 35.792 6.968V6.752C35.792 6.4 35.888 6.096 36.08 5.84C36.288 5.584 36.552 5.416 36.872 5.336L36.56 3.68C36.528 3.52 36.512 3.392 36.512 3.296C36.512 2.912 36.624 2.592 36.848 2.336C37.088 2.08 37.384 1.952 37.736 1.952C38.056 1.952 38.336 2.064 38.576 2.288C38.816 2.496 38.968 2.784 39.032 3.152L39.416 5.288H40.088L40.568 3.2C40.648 2.832 40.808 2.536 41.048 2.312C41.304 2.072 41.592 1.952 41.912 1.952C42.264 1.952 42.552 2.072 42.776 2.312C43.016 2.552 43.136 2.856 43.136 3.224C43.136 3.32 43.12 3.448 43.088 3.608L42.704 5.36C43.008 5.44 43.248 5.608 43.424 5.864C43.616 6.12 43.712 6.416 43.712 6.752V6.968C43.712 7.384 43.568 7.736 43.28 8.024C43.008 8.296 42.664 8.432 42.248 8.432H41.312L41.168 11.6H42.248C42.664 11.6 43.008 11.744 43.28 12.032C43.568 12.304 43.712 12.648 43.712 13.064V13.28C43.712 13.696 43.568 14.048 43.28 14.336C43.008 14.608 42.664 14.744 42.248 14.744H39.824ZM35.408 14.432C35.456 14.784 35.392 15.104 35.216 15.392C35.04 15.68 34.792 15.88 34.472 15.992V21.872C34.472 22.288 34.328 22.632 34.04 22.904C33.768 23.192 33.424 23.336 33.008 23.336H30.608C30.192 23.336 29.84 23.192 29.552 22.904C29.28 22.632 29.144 22.288 29.144 21.872V21.776C29.144 21.36 29.24 21.008 29.432 20.72C29.624 20.448 29.856 20.312 30.128 20.312H31.112V16.664L30.8 16.712C30.736 16.728 30.64 16.736 30.512 16.736C30.144 16.736 29.824 16.624 29.552 16.4C29.296 16.16 29.136 15.856 29.072 15.488L29.024 15.272C29.008 15.208 29 15.12 29 15.008C29 14.64 29.112 14.328 29.336 14.072C29.576 13.8 29.872 13.632 30.224 13.568L31.112 13.424V9.344H30.488C30.072 9.344 29.72 9.208 29.432 8.936C29.16 8.648 29.024 8.296 29.024 7.88V7.496C29.024 7.08 29.12 6.736 29.312 6.464C29.52 6.176 29.776 6.032 30.08 6.032H31.112V3.464C31.112 3.048 31.248 2.704 31.52 2.432C31.808 2.144 32.16 2 32.576 2H33.008C33.424 2 33.768 2.144 34.04 2.432C34.328 2.704 34.472 3.048 34.472 3.464V6.032C34.776 6.032 35.032 6.176 35.24 6.464C35.448 6.736 35.552 7.08 35.552 7.496V7.88C35.552 8.328 35.488 8.688 35.36 8.96C35.232 9.216 35.04 9.344 34.784 9.344H34.472V13.04C34.712 13.12 34.912 13.272 35.072 13.496C35.248 13.704 35.352 13.952 35.384 14.24L35.408 14.432ZM49.664 2.408C50.08 2.408 50.424 2.552 50.696 2.84C50.984 3.112 51.128 3.456 51.128 3.872V5.264C51.128 5.328 51.112 5.44 51.08 5.6L49.736 9.944C50.056 9.944 50.328 10.088 50.552 10.376C50.776 10.648 50.888 10.992 50.888 11.408V19.112C50.888 19.464 50.744 19.76 50.456 20C50.184 20.256 49.84 20.384 49.424 20.384H48.704C48.288 20.384 47.936 20.256 47.648 20C47.376 19.744 47.24 19.424 47.24 19.04C47.24 18.752 47.312 18.504 47.456 18.296C47.616 18.072 47.832 17.912 48.104 17.816V12.824C47.976 12.824 47.848 12.736 47.72 12.56C47.592 12.384 47.488 12.136 47.408 11.816L47.12 10.712C47.104 10.632 47.096 10.536 47.096 10.424C47.096 10.296 47.104 10.2 47.12 10.136L48.44 5.384H46.976V22.112C46.976 22.528 46.832 22.872 46.544 23.144C46.272 23.432 45.928 23.576 45.512 23.576H45.464C45.048 23.576 44.696 23.432 44.408 23.144C44.136 22.872 44 22.528 44 22.112V3.872C44 3.456 44.136 3.112 44.408 2.84C44.696 2.552 45.048 2.408 45.464 2.408H49.664ZM43.664 21.224C43.696 21.32 43.712 21.464 43.712 21.656C43.712 22.056 43.584 22.384 43.328 22.64C43.072 22.912 42.744 23.048 42.344 23.048C42.008 23.048 41.704 22.944 41.432 22.736C41.16 22.528 40.992 22.256 40.928 21.92L39.944 17.456C39.912 17.264 39.896 17.128 39.896 17.048C39.896 16.648 40.016 16.32 40.256 16.064C40.512 15.808 40.84 15.68 41.24 15.68C41.56 15.68 41.84 15.784 42.08 15.992C42.336 16.184 42.504 16.448 42.584 16.784L43.664 21.224Z" fill="white"/>
<path d="M63.944 12.608C63.944 13.248 63.712 13.68 63.248 13.904V22.016C63.248 22.48 63.12 22.832 62.864 23.072C62.624 23.328 62.272 23.456 61.808 23.456L59.864 23.432C59.4 23.432 59.04 23.336 58.784 23.144C58.544 22.968 58.424 22.704 58.424 22.352C58.424 22.016 58.488 21.752 58.616 21.56C58.76 21.368 58.944 21.272 59.168 21.272H59.888V14.816H57.272V15.704H58.424C58.776 15.704 59.056 15.792 59.264 15.968C59.472 16.128 59.576 16.36 59.576 16.664C59.576 16.968 59.472 17.208 59.264 17.384C59.056 17.544 58.776 17.624 58.424 17.624H57.272V18.512H58.424C58.776 18.512 59.056 18.6 59.264 18.776C59.472 18.936 59.576 19.168 59.576 19.472C59.576 19.776 59.464 20.008 59.24 20.168C59.032 20.344 58.752 20.432 58.4 20.432H57.272V22.136C57.272 22.6 57.144 22.952 56.888 23.192C56.648 23.448 56.296 23.576 55.832 23.576H55.4C54.936 23.576 54.576 23.448 54.32 23.192C54.064 22.936 53.936 22.584 53.936 22.136L53.864 13.856C53.432 13.632 53.216 13.208 53.216 12.584V10.424C53.216 9.464 53.4 8.984 53.768 8.984H53.888V3.896C53.888 3.432 54.008 3.08 54.248 2.84C54.504 2.584 54.864 2.456 55.328 2.456H61.904C62.368 2.456 62.72 2.584 62.96 2.84C63.216 3.08 63.344 3.432 63.344 3.896V8.984C63.536 8.984 63.68 9.112 63.776 9.368C63.888 9.608 63.944 9.96 63.944 10.424V12.608ZM73.352 7.88C73.72 7.88 74.008 8.008 74.216 8.264C74.424 8.504 74.528 8.856 74.528 9.32V9.416C74.528 9.88 74.4 10.24 74.144 10.496C73.904 10.736 73.552 10.856 73.088 10.856H71.336C70.872 10.856 70.512 10.736 70.256 10.496C70.016 10.24 69.896 9.88 69.896 9.416V5.24H68.36L67.808 9.632C67.744 10.08 67.576 10.416 67.304 10.64C67.048 10.864 66.696 10.968 66.248 10.952L65.648 10.928C65.232 10.896 64.904 10.768 64.664 10.544C64.44 10.32 64.328 10.008 64.328 9.608C64.328 9.496 64.336 9.408 64.352 9.344L65.024 3.8C65.072 3.352 65.224 3.016 65.48 2.792C65.752 2.568 66.112 2.456 66.56 2.456H71.912C72.376 2.456 72.728 2.584 72.968 2.84C73.224 3.08 73.352 3.432 73.352 3.896V7.88ZM57.128 5.864H57.896C58.36 5.864 58.712 5.992 58.952 6.248C59.208 6.488 59.336 6.84 59.336 7.304V8.984H60.032V5H57.128V5.864ZM57.128 8.984H58.04V7.424H57.128V8.984ZM60.776 12.32V11.528H56.312V12.32H60.776ZM74.048 20.336C74.352 20.672 74.504 20.992 74.504 21.296C74.504 21.664 74.32 22.016 73.952 22.352L73.376 22.88C73.056 23.184 72.728 23.336 72.392 23.336C72.04 23.336 71.696 23.152 71.36 22.784L69.104 20.312L66.68 22.784C66.328 23.136 65.984 23.312 65.648 23.312C65.328 23.312 64.992 23.152 64.64 22.832L64.28 22.496C63.928 22.16 63.752 21.816 63.752 21.464C63.752 21.112 63.912 20.776 64.232 20.456L66.416 18.272C66.256 18.192 66.064 18.04 65.84 17.816L65.072 17.024C64.752 16.704 64.592 16.368 64.592 16.016C64.592 15.632 64.784 15.288 65.168 14.984L65.504 14.72C65.568 14.656 65.624 14.616 65.672 14.6C64.776 14.552 64.328 14.072 64.328 13.16V13.016C64.328 12.552 64.448 12.2 64.688 11.96C64.944 11.704 65.304 11.576 65.768 11.576H72.944C73.408 11.576 73.76 11.704 74 11.96C74.256 12.2 74.384 12.552 74.384 13.016V14.072C74.384 14.424 74.328 14.744 74.216 15.032C74.12 15.304 73.96 15.576 73.736 15.848L71.888 18.008L74.048 20.336ZM70.712 14.6H67.28L67.52 14.816L69.08 16.4L70.712 14.6Z" fill="white"/>
<path d="M79.328 13.688C78.864 13.688 78.504 13.568 78.248 13.328C78.008 13.072 77.888 12.712 77.888 12.248V11.936C77.888 11.472 78.008 11.12 78.248 10.88C78.504 10.624 78.864 10.496 79.328 10.496H85.88C85.88 10.16 85.944 9.864 86.072 9.608C86.2 9.352 86.408 9.096 86.696 8.84L90.224 5.816H81.512C81.048 5.816 80.688 5.696 80.432 5.456C80.192 5.2 80.072 4.84 80.072 4.376V4.064C80.072 3.6 80.192 3.248 80.432 3.008C80.688 2.752 81.048 2.624 81.512 2.624H94.064C94.528 2.624 94.88 2.752 95.12 3.008C95.376 3.248 95.504 3.6 95.504 4.064V4.736C95.504 5.104 95.44 5.424 95.312 5.696C95.184 5.968 94.984 6.232 94.712 6.488L90.2 10.496H96.728C97.192 10.496 97.544 10.624 97.784 10.88C98.04 11.12 98.168 11.472 98.168 11.936V12.248C98.168 12.712 98.04 13.072 97.784 13.328C97.544 13.568 97.192 13.688 96.728 13.688H89.696V21.8C89.696 22.264 89.568 22.616 89.312 22.856C89.072 23.112 88.72 23.24 88.256 23.24H85.448C84.984 23.24 84.624 23.112 84.368 22.856C84.128 22.616 84.008 22.264 84.008 21.8V21.32C84.008 20.856 84.12 20.496 84.344 20.24C84.584 20 84.912 19.88 85.328 19.88H85.88V13.688H79.328Z" fill="white"/>
</svg>
