<svg width="128" height="25" viewBox="0 0 128 25" fill="none" xmlns="http://www.w3.org/2000/svg">
<path d="M48.032 8.12C48.448 8.12 48.792 8.264 49.064 8.552C49.352 8.824 49.496 9.168 49.496 9.584V10.016C49.496 10.432 49.352 10.784 49.064 11.072C48.792 11.344 48.448 11.48 48.032 11.48H38.384L33.008 22.232C32.88 22.488 32.696 22.688 32.456 22.832C32.232 22.976 31.984 23.048 31.712 23.048C31.52 23.048 31.296 22.992 31.04 22.88L30.224 22.472C29.968 22.344 29.768 22.168 29.624 21.944C29.48 21.72 29.408 21.472 29.408 21.2C29.408 20.96 29.464 20.728 29.576 20.504L34.088 11.48H30.464C30.048 11.48 29.696 11.344 29.408 11.072C29.136 10.784 29 10.432 29 10.016V9.584C29 9.168 29.136 8.824 29.408 8.552C29.696 8.264 30.048 8.12 30.464 8.12H35.768L38.24 3.152C38.368 2.896 38.536 2.696 38.744 2.552C38.968 2.408 39.216 2.336 39.488 2.336C39.696 2.336 39.912 2.384 40.136 2.48L40.952 2.84C41.224 2.968 41.44 3.152 41.6 3.392C41.76 3.632 41.84 3.896 41.84 4.184C41.84 4.424 41.784 4.656 41.672 4.88L40.064 8.12H48.032ZM48.776 20.312C48.936 20.568 49.016 20.832 49.016 21.104C49.016 21.344 48.952 21.576 48.824 21.8C48.696 22.024 48.512 22.208 48.272 22.352L47.504 22.808C47.216 22.968 46.952 23.048 46.712 23.048C46.216 23.048 45.816 22.808 45.512 22.328L40.712 14.552C40.552 14.296 40.472 14.032 40.472 13.76C40.472 13.52 40.536 13.288 40.664 13.064C40.792 12.84 40.976 12.656 41.216 12.512L41.984 12.056C42.272 11.896 42.536 11.816 42.776 11.816C43.272 11.816 43.672 12.056 43.976 12.536L48.776 20.312Z" fill="white"/>
<path d="M73.04 8.312C73.248 8.312 73.424 8.384 73.568 8.528C73.712 8.672 73.784 8.848 73.784 9.056V10.688C73.784 10.896 73.712 11.072 73.568 11.216C73.424 11.36 73.248 11.432 73.04 11.432H67.928L67.52 12.992H72.512C72.72 12.992 72.896 13.064 73.04 13.208C73.184 13.352 73.256 13.528 73.256 13.736V15.944C73.256 16.072 73.224 16.176 73.16 16.256L70.64 19.976L72.128 20.696C72.416 20.856 72.56 21.072 72.56 21.344C72.56 21.424 72.528 21.544 72.464 21.704L71.48 23.6C71.368 23.856 71.152 23.984 70.832 23.984C70.688 23.984 70.56 23.952 70.448 23.888L64.04 20.312C63.784 20.152 63.656 19.952 63.656 19.712C63.656 19.584 63.688 19.464 63.752 19.352L64.544 17.792C64.608 17.664 64.696 17.568 64.808 17.504C64.92 17.44 65.04 17.408 65.168 17.408C65.296 17.408 65.416 17.432 65.528 17.48L67.424 18.392L69.32 15.632H64.496C64.288 15.632 64.112 15.56 63.968 15.416C63.824 15.272 63.752 15.096 63.752 14.888V13.208L63.776 13.064L64.184 11.432H62.936C62.776 11.432 62.632 11.392 62.504 11.312C62.536 11.408 62.552 11.48 62.552 11.528V13.208C62.552 13.416 62.48 13.592 62.336 13.736C62.192 13.88 62.016 13.952 61.808 13.952H60.656V15.848L62 15.68C62.224 15.648 62.416 15.696 62.576 15.824C62.736 15.952 62.824 16.12 62.84 16.328L63.008 17.888C63.024 18.096 62.976 18.28 62.864 18.44C62.752 18.584 62.592 18.672 62.384 18.704L60.656 18.944V22.856C60.656 23.064 60.584 23.24 60.44 23.384C60.296 23.528 60.12 23.6 59.912 23.6H57.608C57.4 23.6 57.224 23.528 57.08 23.384C56.936 23.24 56.864 23.064 56.864 22.856V19.448L54.104 19.832C53.896 19.864 53.712 19.824 53.552 19.712C53.392 19.584 53.304 19.416 53.288 19.208L53.072 17.6C53.04 17.392 53.08 17.208 53.192 17.048C53.32 16.888 53.488 16.8 53.696 16.784L56.864 16.352V13.952H54.176C54.016 13.952 53.872 13.912 53.744 13.832C53.632 13.736 53.56 13.616 53.528 13.472L52.856 11.12C52.824 11.008 52.824 10.896 52.856 10.784L54.152 6.8H53.984C53.776 6.8 53.6 6.728 53.456 6.584C53.312 6.44 53.24 6.264 53.24 6.056V4.424C53.24 4.216 53.312 4.04 53.456 3.896C53.6 3.752 53.776 3.68 53.984 3.68H55.16L55.64 2.24C55.704 2.064 55.808 1.936 55.952 1.856C56.112 1.76 56.28 1.728 56.456 1.76L58.208 2.144C58.384 2.176 58.528 2.264 58.64 2.408C58.768 2.552 58.832 2.712 58.832 2.888C58.832 2.92 58.816 3 58.784 3.128L58.592 3.68H61.496C61.704 3.68 61.88 3.752 62.024 3.896C62.168 4.04 62.24 4.216 62.24 4.424V6.056C62.24 6.264 62.168 6.44 62.024 6.584C61.88 6.728 61.704 6.8 61.496 6.8H57.536L56.192 10.784H57.92V8.336C57.92 8.128 57.992 7.952 58.136 7.808C58.28 7.664 58.456 7.592 58.664 7.592H59.912C60.12 7.592 60.296 7.664 60.44 7.808C60.584 7.952 60.656 8.128 60.656 8.336V10.784H61.808C61.968 10.784 62.112 10.824 62.24 10.904C62.208 10.808 62.192 10.736 62.192 10.688V9.056C62.192 8.848 62.264 8.672 62.408 8.528C62.552 8.384 62.728 8.312 62.936 8.312H64.952L65.336 6.752H63.488C63.28 6.752 63.104 6.68 62.96 6.536C62.816 6.392 62.744 6.216 62.744 6.008V4.376C62.744 4.168 62.816 3.992 62.96 3.848C63.104 3.704 63.28 3.632 63.488 3.632H66.128L66.44 2.36C66.488 2.168 66.592 2.024 66.752 1.928C66.928 1.816 67.112 1.784 67.304 1.832L69.512 2.312C69.688 2.344 69.832 2.424 69.944 2.552C70.056 2.68 70.112 2.832 70.112 3.008C70.112 3.104 70.104 3.176 70.088 3.224L69.992 3.632H72.656C72.864 3.632 73.04 3.704 73.184 3.848C73.328 3.992 73.4 4.168 73.4 4.376V6.008C73.4 6.216 73.328 6.392 73.184 6.536C73.04 6.68 72.864 6.752 72.656 6.752H69.152L68.744 8.312H73.04Z" fill="white"/>
<path d="M96.584 8.216C97 8.216 97.344 8.36 97.616 8.648C97.904 8.92 98.048 9.264 98.048 9.68V9.704C98.048 10.12 97.904 10.472 97.616 10.76C97.344 11.032 97 11.168 96.584 11.168H95.48V13.688C95.48 14.104 95.336 14.456 95.048 14.744C94.776 15.016 94.432 15.152 94.016 15.152H90.656C90.24 15.152 89.888 15.032 89.6 14.792C89.328 14.536 89.192 14.224 89.192 13.856C89.192 13.488 89.312 13.184 89.552 12.944C89.792 12.688 90.088 12.56 90.44 12.56H91.688V11.168H87.488C87.632 11.36 87.704 11.456 87.704 11.456L87.968 11.84C88.336 12.352 88.52 12.76 88.52 13.064C88.52 13.24 88.464 13.376 88.352 13.472C88.256 13.568 88.088 13.688 87.848 13.832C87.768 13.88 87.64 13.96 87.464 14.072C87.304 14.168 87.152 14.216 87.008 14.216C86.864 14.216 86.712 14.16 86.552 14.048C86.392 13.92 86.208 13.704 86 13.4L85.736 13.016C85.368 12.504 85.184 12.088 85.184 11.768C85.184 11.544 85.328 11.344 85.616 11.168H82.976L82.592 13.784C82.528 14.184 82.352 14.496 82.064 14.72C81.792 14.944 81.456 15.04 81.056 15.008L79.928 14.912C79.528 14.88 79.2 14.728 78.944 14.456C78.688 14.168 78.56 13.832 78.56 13.448C78.56 13.336 78.568 13.248 78.584 13.184L78.896 11.168H77.984C77.568 11.168 77.216 11.032 76.928 10.76C76.656 10.472 76.52 10.12 76.52 9.704V9.68C76.52 9.264 76.656 8.92 76.928 8.648C77.216 8.36 77.568 8.216 77.984 8.216H79.376L79.976 4.472C80.04 4.12 80.2 3.84 80.456 3.632C80.712 3.408 81.016 3.296 81.368 3.296H85.28V3.032C85.28 2.76 85.376 2.528 85.568 2.336C85.76 2.144 85.992 2.048 86.264 2.048H87.8C88.072 2.048 88.304 2.144 88.496 2.336C88.688 2.528 88.784 2.76 88.784 3.032V3.296H94.016C94.432 3.296 94.776 3.44 95.048 3.728C95.336 4 95.48 4.344 95.48 4.76V8.216H96.584ZM83.432 8.216H86.864C86.832 8.152 86.768 8.056 86.672 7.928C86.448 7.576 86.336 7.288 86.336 7.064C86.336 6.872 86.4 6.72 86.528 6.608C86.656 6.496 86.848 6.376 87.104 6.248H83.72L83.432 8.216ZM91.688 8.216V6.248H88.544C88.64 6.344 88.768 6.512 88.928 6.752C89.2 7.2 89.336 7.528 89.336 7.736C89.336 7.944 89.216 8.104 88.976 8.216H91.688ZM97.088 20.576C97.376 20.688 97.6 20.864 97.76 21.104C97.936 21.344 98.024 21.624 98.024 21.944C98.024 22.36 97.88 22.704 97.592 22.976C97.32 23.264 96.976 23.408 96.56 23.408H77.936C77.52 23.408 77.168 23.272 76.88 23C76.608 22.728 76.472 22.392 76.472 21.992C76.472 21.672 76.56 21.392 76.736 21.152C76.912 20.912 77.144 20.744 77.432 20.648C77.416 20.6 77.408 20.528 77.408 20.432V17.024C77.408 16.608 77.544 16.264 77.816 15.992C78.104 15.704 78.456 15.56 78.872 15.56H95.648C96.064 15.56 96.408 15.704 96.68 15.992C96.968 16.264 97.112 16.608 97.112 17.024V20.336C97.112 20.448 97.104 20.528 97.088 20.576ZM81.248 20.432V20.552H82.928V20.408V18.08L81.248 18.104V20.432ZM86.432 20.408V20.528H88.112V20.36V18.08L86.432 18.104V20.408ZM91.592 20.384V20.504H93.272V20.336V18.08L91.616 18.104L91.592 20.384Z" fill="white"/>
</svg>
