<svg width="128" height="25" viewBox="0 0 128 25" fill="none" xmlns="http://www.w3.org/2000/svg">
<path d="M26.304 20.24C26.528 20.272 26.704 20.376 26.832 20.552C26.976 20.728 27.024 20.928 26.976 21.152L26.664 22.784C26.632 22.976 26.536 23.128 26.376 23.24C26.232 23.352 26.056 23.392 25.848 23.36L15 21.752V22.568C15 22.776 14.928 22.952 14.784 23.096C14.64 23.24 14.464 23.312 14.256 23.312H12.744C12.536 23.312 12.36 23.24 12.216 23.096C12.072 22.952 12 22.776 12 22.568V20.384H9.984C9.776 20.384 9.6 20.312 9.456 20.168C9.312 20.024 9.24 19.848 9.24 19.64V18.464C9.24 18.256 9.312 18.08 9.456 17.936C9.6 17.792 9.776 17.72 9.984 17.72H10.104V12.824C9.976 12.824 9.856 12.784 9.744 12.704C9.632 12.608 9.56 12.48 9.528 12.32L9.096 10.568C9.08 10.472 9.08 10.376 9.096 10.28L10.44 5.38401H8.976V22.832C8.976 23.04 8.904 23.216 8.76 23.36C8.616 23.504 8.44 23.576 8.232 23.576H6.744C6.536 23.576 6.36 23.504 6.216 23.36C6.072 23.216 6 23.04 6 22.832V3.15201C6 2.94401 6.072 2.76801 6.216 2.62401C6.36 2.48001 6.536 2.40801 6.744 2.40801H12.384C12.592 2.40801 12.768 2.48001 12.912 2.62401C13.056 2.76801 13.128 2.94401 13.128 3.15201V5.36001L13.104 5.50401L11.736 9.94401H12.144C12.352 9.94401 12.528 10.016 12.672 10.16C12.816 10.304 12.888 10.48 12.888 10.688V19.592H13.68L13.56 10.064C13.416 10.064 13.288 9.99201 13.176 9.84801C13.08 9.70401 13.032 9.52801 13.032 9.32001V7.59201C13.032 7.38401 13.104 7.20801 13.248 7.06401C13.392 6.92001 13.568 6.84801 13.776 6.84801H15.816C16.024 6.84801 16.192 6.92001 16.32 7.06401C16.464 7.19201 16.536 7.36001 16.536 7.56801L16.584 10.496L17.976 5.93601H17.952C17.744 5.93601 17.568 5.86401 17.424 5.72001C17.28 5.57601 17.208 5.40001 17.208 5.19201V3.99201C17.208 3.78401 17.28 3.60801 17.424 3.46401C17.568 3.32001 17.744 3.24801 17.952 3.24801H18.792L19.104 2.26401C19.152 2.10401 19.232 1.98401 19.344 1.90401C19.472 1.80801 19.616 1.76001 19.776 1.76001C19.856 1.76001 19.92 1.76801 19.968 1.78401L21.408 2.14401C21.584 2.19201 21.72 2.28001 21.816 2.40801C21.928 2.52001 21.984 2.66401 21.984 2.84001C21.984 2.88801 21.968 2.97601 21.936 3.10401L21.888 3.24801H26.208C26.416 3.24801 26.592 3.32001 26.736 3.46401C26.88 3.60801 26.952 3.78401 26.952 3.99201V5.19201C26.952 5.40001 26.88 5.57601 26.736 5.72001C26.592 5.86401 26.416 5.93601 26.208 5.93601H20.976L20.592 7.08801H25.656C25.864 7.08801 26.04 7.16001 26.184 7.30401C26.328 7.44801 26.4 7.62401 26.4 7.83201V18.632C26.4 18.84 26.328 19.016 26.184 19.16C26.04 19.304 25.864 19.376 25.656 19.376L23.064 19.352C22.856 19.352 22.68 19.288 22.536 19.16C22.408 19.016 22.344 18.84 22.344 18.632V18.008C22.344 17.8 22.4 17.624 22.512 17.48C22.624 17.336 22.76 17.264 22.92 17.264H23.472V9.58401H21.096V10.76H21.936C22.32 10.76 22.576 10.856 22.704 11.048C22.848 11.224 22.92 11.48 22.92 11.816C22.92 12.152 22.848 12.416 22.704 12.608C22.576 12.784 22.32 12.872 21.936 12.872H21.096V14.048H21.936C22.32 14.048 22.576 14.144 22.704 14.336C22.848 14.512 22.92 14.768 22.92 15.104C22.92 15.456 22.848 15.728 22.704 15.92C22.576 16.096 22.32 16.184 21.936 16.184H21.096V18.56C21.096 18.768 21.024 18.944 20.88 19.088C20.736 19.232 20.56 19.304 20.352 19.304H18.912C18.704 19.304 18.528 19.232 18.384 19.088C18.24 18.944 18.168 18.768 18.168 18.56V10.592L17.4 13.112C17.336 13.304 17.232 13.448 17.088 13.544C16.96 13.64 16.808 13.68 16.632 13.664L16.728 19.232L26.304 20.24ZM15.168 5.69601C14.736 5.69601 14.368 5.54401 14.064 5.24001C13.76 4.93601 13.608 4.56001 13.608 4.11201C13.608 3.68001 13.76 3.31201 14.064 3.00801C14.368 2.70401 14.736 2.55201 15.168 2.55201C15.6 2.55201 15.968 2.70401 16.272 3.00801C16.576 3.31201 16.728 3.68001 16.728 4.11201C16.728 4.56001 16.576 4.93601 16.272 5.24001C15.968 5.54401 15.6 5.69601 15.168 5.69601Z" fill="white"/>
<path d="M50.16 15.68C50.416 15.68 50.616 15.784 50.76 15.992C50.92 16.2 51 16.504 51 16.904V21.536C51 21.952 50.856 22.296 50.568 22.568C50.296 22.856 49.952 23 49.536 23H45.984C45.568 23 45.216 22.856 44.928 22.568C44.656 22.296 44.52 21.952 44.52 21.536V6.27201H42.432L41.472 22.112C41.456 22.528 41.288 22.872 40.968 23.144C40.664 23.416 40.304 23.536 39.888 23.504L39.336 23.456C38.92 23.44 38.584 23.28 38.328 22.976C38.072 22.688 37.96 22.336 37.992 21.92L38.304 16.856C38.16 17.016 38.016 17.12 37.872 17.168C37.776 17.2 37.704 17.216 37.656 17.216C37.432 17.216 37.216 17.096 37.008 16.856C36.816 16.616 36.664 16.304 36.552 15.92L36.024 13.952V22.16C36.024 22.576 35.88 22.92 35.592 23.192C35.32 23.48 34.976 23.624 34.56 23.624H33.984C33.568 23.624 33.216 23.48 32.928 23.192C32.656 22.92 32.52 22.576 32.52 22.16V11.192L31.656 17.24C31.608 17.64 31.464 17.968 31.224 18.224C31 18.464 30.744 18.584 30.456 18.584C30.088 18.584 29.792 18.456 29.568 18.2C29.344 17.928 29.232 17.6 29.232 17.216L29.256 16.952L30.384 9.68001L30.408 9.51201C30.104 9.43201 29.856 9.26401 29.664 9.00801C29.488 8.75201 29.4 8.45601 29.4 8.12001V7.88001C29.4 7.46401 29.536 7.12001 29.808 6.84801C30.096 6.56001 30.448 6.41601 30.864 6.41601H32.52V3.46401C32.52 3.04801 32.656 2.70401 32.928 2.43201C33.216 2.14401 33.568 2.00001 33.984 2.00001H34.56C34.976 2.00001 35.32 2.14401 35.592 2.43201C35.88 2.70401 36.024 3.04801 36.024 3.46401V6.41601H37.08C37.496 6.41601 37.84 6.56001 38.112 6.84801C38.4 7.12001 38.544 7.46401 38.544 7.88001V8.12001C38.544 8.53601 38.424 8.88801 38.184 9.17601C37.944 9.44801 37.648 9.58401 37.296 9.58401H36.024V11.456C36.088 11.392 36.184 11.336 36.312 11.288C36.568 11.208 36.816 11.288 37.056 11.528C37.296 11.768 37.48 12.104 37.608 12.536L38.376 15.416L39.048 4.30401C39.064 3.90401 39.208 3.58401 39.48 3.34401C39.752 3.08801 40.088 2.96001 40.488 2.96001H46.632C47.048 2.96001 47.392 3.10401 47.664 3.39201C47.952 3.66401 48.096 4.00801 48.096 4.42401V19.832H49.32V16.904C49.32 16.504 49.392 16.2 49.536 15.992C49.696 15.784 49.904 15.68 50.16 15.68Z" fill="white"/>
<path d="M56.136 11.528C55.896 12.184 55.496 12.512 54.936 12.512C54.776 12.512 54.576 12.472 54.336 12.392C53.728 12.168 53.424 11.784 53.424 11.24C53.424 11.016 53.472 10.784 53.568 10.544L54.384 8.60001C53.808 8.40801 53.52 7.95201 53.52 7.23201V7.13601C53.52 6.40001 53.816 5.94401 54.408 5.76801L54 4.18401C53.952 4.00801 53.928 3.84001 53.928 3.68001C53.928 3.04001 54.288 2.64801 55.008 2.50401C55.088 2.48801 55.208 2.48001 55.368 2.48001C56.04 2.48001 56.472 2.86401 56.664 3.63201L57.192 5.69601H57.696V3.36801C57.696 2.90401 57.816 2.55201 58.056 2.31201C58.312 2.05601 58.672 1.92801 59.136 1.92801H59.568C60.032 1.92801 60.384 2.05601 60.624 2.31201C60.88 2.55201 61.008 2.90401 61.008 3.36801V5.69601H61.512L62.16 3.63201C62.4 2.89601 62.816 2.52801 63.408 2.52801C63.6 2.52801 63.744 2.54401 63.84 2.57601C64.16 2.65601 64.408 2.80001 64.584 3.00801C64.776 3.21601 64.872 3.47201 64.872 3.77601C64.872 3.87201 64.84 4.04801 64.776 4.30401L64.32 5.76801C64.928 5.94401 65.232 6.40001 65.232 7.13601V7.23201C65.232 7.95201 64.952 8.40001 64.392 8.57601L65.136 10.472C65.232 10.712 65.28 10.944 65.28 11.168C65.28 11.712 64.976 12.096 64.368 12.32C64.128 12.4 63.92 12.44 63.744 12.44C63.184 12.44 62.784 12.112 62.544 11.456L61.512 8.67201H61.008V11.12C61.008 11.584 60.88 11.944 60.624 12.2C60.384 12.44 60.032 12.56 59.568 12.56H59.136C58.672 12.56 58.312 12.44 58.056 12.2C57.816 11.944 57.696 11.584 57.696 11.12V8.67201H57.24L56.136 11.528ZM74.976 6.96801C74.976 7.56001 74.784 7.97601 74.4 8.21601L73.416 14.552L74.592 21.536C74.608 21.616 74.616 21.728 74.616 21.872C74.616 22.608 74.216 23.048 73.416 23.192L72.768 23.312C72.688 23.328 72.568 23.336 72.408 23.336C72.056 23.336 71.768 23.232 71.544 23.024C71.32 22.816 71.176 22.512 71.112 22.112L70.2 16.04L68.76 22.184C68.568 22.952 68.128 23.336 67.44 23.336C67.36 23.336 67.224 23.32 67.032 23.288L66.408 23.168C66.024 23.104 65.728 22.96 65.52 22.736C65.328 22.512 65.232 22.24 65.232 21.92C65.232 21.776 65.256 21.616 65.304 21.44L67.008 14.648L66.528 12.632C66.496 12.52 66.48 12.368 66.48 12.176C66.48 11.488 66.864 11.072 67.632 10.928L67.968 10.856C68.16 10.824 68.296 10.808 68.376 10.808C69.048 10.808 69.48 11.192 69.672 11.96L70.104 13.76L70.872 8.76801C70.904 8.60801 70.936 8.48801 70.968 8.40801H69.264L69 9.53601C68.808 10.304 68.368 10.688 67.68 10.688C67.616 10.688 67.488 10.672 67.296 10.64L66.696 10.52C65.928 10.344 65.544 9.92801 65.544 9.27201C65.544 9.08001 65.56 8.92801 65.592 8.81601L66.912 3.27201C67.104 2.50401 67.536 2.12001 68.208 2.12001C68.288 2.12001 68.424 2.13601 68.616 2.16801L69.192 2.28801C69.96 2.43201 70.344 2.84801 70.344 3.53601C70.344 3.72801 70.328 3.88001 70.296 3.99201L70.008 5.24001H73.536C74 5.24001 74.352 5.36801 74.592 5.62401C74.848 5.86401 74.976 6.21601 74.976 6.68001V6.96801ZM63.744 13.784C64.208 13.784 64.568 13.912 64.824 14.168C65.08 14.408 65.208 14.752 65.208 15.2V15.656C65.208 16.008 65.168 16.32 65.088 16.592C65.008 16.864 64.872 17.152 64.68 17.456L63.456 19.28C63.344 19.472 63.216 19.624 63.072 19.736L63.936 20.168C64.496 20.456 64.776 20.832 64.776 21.296C64.776 21.552 64.688 21.832 64.512 22.136L64.44 22.232C64.136 22.728 63.752 22.976 63.288 22.976C63.048 22.976 62.784 22.904 62.496 22.76L59.16 20.96L56.136 22.832C55.848 23.024 55.56 23.12 55.272 23.12C54.84 23.12 54.464 22.888 54.144 22.424L54.12 22.4C53.896 22.112 53.784 21.816 53.784 21.512C53.784 21.08 54.032 20.712 54.528 20.408L56.232 19.4L55.656 19.088C55.112 18.784 54.84 18.4 54.84 17.936C54.84 17.696 54.912 17.432 55.056 17.144L55.32 16.64H55.224C54.76 16.64 54.4 16.52 54.144 16.28C53.904 16.024 53.784 15.664 53.784 15.2C53.784 14.736 53.904 14.384 54.144 14.144C54.4 13.904 54.76 13.784 55.224 13.784H56.784L57.024 13.328C57.312 12.768 57.704 12.488 58.2 12.488C58.456 12.488 58.704 12.544 58.944 12.656L58.992 12.68C59.568 12.952 59.856 13.32 59.856 13.784H63.744ZM60.504 18.464L61.752 16.64H58.536L58.152 17.312L60.504 18.464Z" fill="white"/>
<path d="M97.44 19.616C97.856 19.616 98.2 19.752 98.472 20.024C98.76 20.312 98.904 20.664 98.904 21.08V21.464C98.904 21.88 98.76 22.224 98.472 22.496C98.2 22.784 97.856 22.928 97.44 22.928H78.984C78.568 22.928 78.216 22.784 77.928 22.496C77.656 22.224 77.52 21.88 77.52 21.464V21.08C77.52 20.664 77.656 20.312 77.928 20.024C78.216 19.752 78.568 19.616 78.984 19.616H86.688V15.896H80.832C80.416 15.896 80.064 15.76 79.776 15.488C79.504 15.2 79.368 14.848 79.368 14.432V14.144C79.368 13.728 79.504 13.384 79.776 13.112C80.064 12.824 80.416 12.68 80.832 12.68H86.688V9.03201H82.152C82.024 9.03201 81.928 9.02401 81.864 9.00801L81.216 10.928C81.104 11.248 80.928 11.496 80.688 11.672C80.464 11.848 80.2 11.936 79.896 11.936C79.736 11.936 79.568 11.912 79.392 11.864L78.792 11.672C78.472 11.56 78.224 11.384 78.048 11.144C77.872 10.904 77.784 10.624 77.784 10.304C77.784 10.128 77.808 9.96001 77.856 9.80001L79.848 3.82401C79.96 3.52001 80.136 3.28001 80.376 3.10401C80.616 2.91201 80.896 2.81601 81.216 2.81601C81.376 2.81601 81.536 2.84001 81.696 2.88801L82.272 3.08001C82.592 3.19201 82.84 3.36801 83.016 3.60801C83.192 3.84801 83.28 4.12801 83.28 4.44801C83.28 4.60801 83.256 4.77601 83.208 4.95201L82.92 5.81601H86.688V3.46401C86.688 3.04801 86.824 2.70401 87.096 2.43201C87.384 2.14401 87.736 2.00001 88.152 2.00001H88.968C89.384 2.00001 89.728 2.14401 90 2.43201C90.288 2.70401 90.432 3.04801 90.432 3.46401V5.81601H96.768C97.184 5.81601 97.528 5.96001 97.8 6.24801C98.088 6.52001 98.232 6.86401 98.232 7.28001V7.56801C98.232 7.98401 98.088 8.33601 97.8 8.62401C97.528 8.89601 97.184 9.03201 96.768 9.03201H90.432V12.68H95.712C96.128 12.68 96.472 12.824 96.744 13.112C97.032 13.384 97.176 13.728 97.176 14.144V14.432C97.176 14.848 97.032 15.2 96.744 15.488C96.472 15.76 96.128 15.896 95.712 15.896H90.432V19.616H97.44Z" fill="white"/>
<path d="M121.488 20C121.904 20 122.248 20.136 122.52 20.408C122.808 20.696 122.952 21.048 122.952 21.464V21.896C122.952 22.312 122.808 22.656 122.52 22.928C122.248 23.216 121.904 23.36 121.488 23.36H117.768C117.432 23.36 117.136 23.256 116.88 23.048C116.64 22.856 116.488 22.592 116.424 22.256L116.112 20.672L114.432 22.784C114.112 23.184 113.728 23.384 113.28 23.384C112.944 23.384 112.632 23.264 112.344 23.024L111.864 22.64C111.496 22.352 111.312 21.984 111.312 21.536C111.312 21.376 111.352 21.192 111.432 20.984C111.288 21.032 111.128 21.056 110.952 21.056H108.048C107.632 21.056 107.28 20.912 106.992 20.624C106.72 20.352 106.584 20.008 106.584 19.592C106.584 19.176 106.696 18.832 106.92 18.56C107.144 18.272 107.424 18.128 107.76 18.128H108.936V14.312H105.912L105.336 22.064C105.304 22.48 105.128 22.816 104.808 23.072C104.504 23.344 104.144 23.464 103.728 23.432L102.888 23.36C102.472 23.328 102.136 23.16 101.88 22.856C101.624 22.568 101.512 22.208 101.544 21.776L102.744 6.72801C102.776 6.32801 102.92 6.00801 103.176 5.76801C103.448 5.52801 103.776 5.40801 104.16 5.40801H113.04L112.752 3.94401C112.736 3.86401 112.728 3.75201 112.728 3.60801C112.728 3.25601 112.832 2.95201 113.04 2.69601C113.264 2.44001 113.552 2.28001 113.904 2.21601L114.672 2.07201C114.752 2.05601 114.856 2.04801 114.984 2.04801C115.336 2.04801 115.64 2.15201 115.896 2.36001C116.168 2.56801 116.336 2.84801 116.4 3.20001L116.856 5.40801H121.128C121.544 5.40801 121.888 5.55201 122.16 5.84001C122.448 6.11201 122.592 6.45601 122.592 6.87201V7.20801C122.592 7.62401 122.448 7.97601 122.16 8.26401C121.888 8.53601 121.544 8.67201 121.128 8.67201H117.528L118.248 12.272L119.136 11.168C119.424 10.784 119.808 10.592 120.288 10.592C120.64 10.592 120.96 10.712 121.248 10.952L121.704 11.336C122.056 11.624 122.232 11.984 122.232 12.416C122.232 12.736 122.12 13.048 121.896 13.352L119.184 16.784L119.832 20H121.488ZM119.28 5.19201C118.848 5.19201 118.48 5.04001 118.176 4.73601C117.872 4.43201 117.72 4.05601 117.72 3.60801C117.72 3.17601 117.872 2.80801 118.176 2.50401C118.48 2.20001 118.848 2.04801 119.28 2.04801C119.712 2.04801 120.08 2.20001 120.384 2.50401C120.688 2.80801 120.84 3.17601 120.84 3.60801C120.84 4.05601 120.688 4.43201 120.384 4.73601C120.08 5.04001 119.712 5.19201 119.28 5.19201ZM115.2 16.136L113.712 8.67201H106.344L106.152 11.216H110.952C111.368 11.216 111.712 11.36 111.984 11.648C112.272 11.92 112.416 12.264 112.416 12.68V19.592V19.64L115.2 16.136Z" fill="white"/>
</svg>
