<svg width="24" height="24" viewBox="0 0 24 24" fill="none" xmlns="http://www.w3.org/2000/svg">
<g clip-path="url(#clip0)">
<path fill-rule="evenodd" clip-rule="evenodd" d="M24 11.8421C24 18.1207 18.6274 23.2105 12 23.2105C5.37258 23.2105 0 18.1207 0 11.8421C0 5.56351 5.37258 0.473694 12 0.473694C18.6274 0.473694 24 5.56351 24 11.8421ZM6.31037 6.38413C5.93069 6.74383 5.93069 7.3485 6.31037 7.70821L10.6739 11.8421L6.31038 15.976C5.9307 16.3357 5.9307 16.9404 6.31038 17.3001C6.66212 17.6333 7.21303 17.6333 7.56477 17.3001L11.9999 13.0983L16.4351 17.3001C16.7868 17.6333 17.3378 17.6333 17.6895 17.3001C18.0692 16.9404 18.0692 16.3357 17.6895 15.976L13.326 11.8421L17.6895 7.70821C18.0692 7.3485 18.0692 6.74383 17.6895 6.38413C17.3378 6.0509 16.7869 6.0509 16.4351 6.38413L11.9999 10.5859L7.56476 6.38413C7.21302 6.0509 6.66211 6.0509 6.31037 6.38413Z" fill="#C2CCE9"/>
</g>
<defs>
<clipPath id="clip0">
<rect width="24" height="22.7368" fill="white" transform="translate(0 0.473694)"/>
</clipPath>
</defs>
</svg>
