<svg width="26" height="26" viewBox="0 0 26 26" fill="none" xmlns="http://www.w3.org/2000/svg">
<path d="M25.8773 11.3522C25.775 10.7866 25.2329 10.2081 24.6652 10.0853L24.2433 9.988C23.2512 9.68854 22.369 9.03074 21.809 8.06323C21.249 7.0906 21.1161 5.98232 21.359 4.97131L21.4919 4.57202C21.6607 4.02172 21.4408 3.26153 20.9984 2.88528C20.9984 2.88528 20.5995 2.54998 19.4821 1.90242C18.3621 1.25998 17.8788 1.08081 17.8788 1.08081C17.3342 0.878604 16.5722 1.07057 16.1733 1.49289L15.8792 1.80772C15.1275 2.52183 14.1123 2.95439 12.9923 2.95439C11.8723 2.95439 10.847 2.51671 10.0952 1.80004L9.80881 1.49289C9.41759 1.07057 8.65047 0.883724 8.10327 1.07825C8.10327 1.07825 7.61487 1.25742 6.49489 1.89986C5.3749 2.55254 4.98112 2.88784 4.98112 2.88784C4.53875 3.25898 4.31884 4.01404 4.48761 4.56946L4.61035 4.97131C4.84815 5.98744 4.72286 7.08805 4.16031 8.06067C3.59776 9.03329 2.71046 9.69878 1.71066 9.99312L1.30409 10.0853C0.744099 10.2132 0.194335 10.784 0.0920535 11.3522C0.0920535 11.3522 0 11.8616 0 13.1567C0 14.4518 0.0920535 14.9612 0.0920535 14.9612C0.194335 15.532 0.736428 16.1053 1.30409 16.2282L1.70299 16.3203C2.70279 16.6146 3.59776 17.2776 4.15519 18.2579C4.71519 19.2305 4.84815 20.3388 4.60523 21.3498L4.49017 21.7414C4.3214 22.2917 4.54131 23.0519 4.98368 23.4281C4.98368 23.4281 5.38257 23.7634 6.5 24.411C7.61998 25.056 8.10327 25.2326 8.10327 25.2326C8.64792 25.4323 9.41247 25.2403 9.80881 24.818L10.0875 24.5185C10.847 23.8018 11.8647 23.3616 12.9898 23.3616C14.1149 23.3616 15.1402 23.8044 15.892 24.5211L16.1707 24.8205C16.562 25.2429 17.3291 25.4297 17.8763 25.2352C17.8763 25.2352 18.3647 25.056 19.4847 24.4136C20.6046 23.7686 20.9984 23.4307 20.9984 23.4307C21.4408 23.0596 21.6607 22.2994 21.4919 21.744L21.3692 21.337C21.1314 20.3285 21.2567 19.2279 21.8192 18.2604C22.3792 17.2878 23.2768 16.6198 24.2714 16.3229L24.6703 16.2307C25.2303 16.1027 25.7801 15.532 25.8824 14.9637C25.8824 14.9637 25.9744 14.4544 25.9744 13.1593C25.9693 11.8641 25.8773 11.3522 25.8773 11.3522ZM12.9923 18.3398C10.1361 18.3398 7.81176 16.0208 7.81176 13.1542C7.81176 10.2951 10.1284 7.97621 12.9923 7.97621C15.8485 7.97621 18.1729 10.2951 18.1729 13.1618C18.1652 16.0234 15.8485 18.3398 12.9923 18.3398Z" fill="#A5BCD2"/>
</svg>
